<svg xmlns="http://www.w3.org/2000/svg" viewBox="0 0 3000 3000" width="3000" height="3000"><g transform="translate(1568.3999999999999 1693.2) rotate(0.0 682.8000000000001 352.79999999999984) scale(1.7938680608464916 1.7915859445816957)"><svg width="761.26" height="393.841" viewBox="0 0 761.26 393.841"><path d="m190.711 391.779 399.605-.413c3.527 0 6.332.408 7.782-2.808L759.287 30.919C765.823 16.416 755.216 0 739.308 0H377.537a36.635 36.635 0 0 0-33.399 21.581L182.063 381.187c-2.675 5.936 2.138 10.592 8.649 10.592z" fill="#ffcf2d"/><path d="M207.067 371.991h374.302L732.456 36.766c3.446-7.647-2.147-16.303-10.534-16.303H381.458a24.692 24.692 0 0 0-22.512 14.547z" fill="#66b0f0"/><path d="M589.852 366.105H331.133l-6.661 1.776-246.27 1.48 9.899 21.648 238.129-1.665 4.163 4.497h259.459c7.659 0 13.868-6.209 13.868-13.868s-6.209-13.868-13.868-13.868z" fill="#5b2448"/><path d="M14.259 366.105h319.272c10.077 0 16.789 10.407 12.633 19.587a13.868 13.868 0 0 1-12.633 8.148H13.868c-7.881 0-14.227-6.575-13.852-14.539.352-7.459 6.777-13.197 14.244-13.197z" fill="#9b3c82"/><g fill="#ffcf2d"><circle cx="548.25" cy="380.109" r="4.315"/><path d="M528.125 382.272h-.009l-29.542-.104a2.5 2.5 0 0 1 .009-5h.009l29.542.104a2.5 2.5 0 0 1-.009 5z"/></g></svg></g><g transform="translate(44.4 718.8) rotate(0.0 1128.0 922.8000000000001) scale(1.4630350194552528 1.464297048556014)"><svg width="1542" height="1260.4" viewBox="0 0 1542 1260.4"><path d="M788.7 893.4c66.5-31.5 106.4-90.2 132.3-126.5 51-71.6 94.5-99.8 129.9-90.3 50.3 13.7-61.3 214.4-262.2 216.8z" fill="#5b2448"/><path d="M1378.2 677.7c-96.5 106.7-124.5 232.7-252.2 316.5-141 92.5-283.8 14.1-337.4-100.7l177.5-180.7c8.1 8.8 17.9 20.3 26.5 30.9 1.8 2.2 3.5 4.3 5.1 6.3 9.6 11.9 16.9 21.3 16.9 21.3s132.4-158.1 286.7-249.1c167.9-99.1 116.1-31.8 116.1-31.8 185-68 73.9 7.4 73.9 7.4 106-28 12.5 30.5 12.5 30.5 81.7-10.5-16.1 37.9-18.2 38.9 69.5-13.5-32.5 27.7-107.4 110.5z" fill="#f4ada2"/><g fill="#9b3c82"><path d="M976.1 824.5c.3.2.6.2.9.2.7 0 1.4-.4 1.8-1.1.1-.3 13.5-25.4 35.5-52.9-.5-.6-1.3-1.7-2.5-3.2-22.6 28.2-36.4 54-36.5 54.3-.6.9-.2 2.2.8 2.7zm373.1-235c-.7.8-.6 2.1.2 2.8.4.3.8.5 1.3.5.6 0 1.1-.2 1.5-.7 13-15.5 22.5-31.2 31.7-46.4 11.6-19.3 23.7-39.2 43-58.6l.3-.3c-2.7 1-5.5 2-8.4 3.1-16.6 18-27.6 36.2-38.3 53.8-9 15-18.4 30.5-31.3 45.8zm78.9-56.5c.3.7 1.1 1.2 1.8 1.2.3 0 .6-.1.8-.2.5-.2 50.9-23.4 75.3-39.9-3.7.8-7.8 1.8-12.2 3-25.8 15.3-64.3 33.1-64.7 33.3-1 .4-1.5 1.6-1 2.6zm11.5 27.2c.3.8 1.1 1.3 1.9 1.3.2 0 .5 0 .7-.1.4-.2 43.1-16.6 73-34.4-2.9.2-6.2.5-9.8 1-28.8 15.9-64.3 29.5-64.7 29.7-1 .4-1.5 1.5-1.1 2.5zm3.4 26.2c.3.8 1.1 1.4 1.9 1.4.2 0 .4 0 .6-.1.3-.1 31.5-10.6 55.7-22.8-3.4.2-7.8.8-13.2 1.8-21.3 9.6-43.5 17.1-43.8 17.2-1 .3-1.6 1.4-1.2 2.5zM997.8 750c-47.1 35.6-111.4 133-209.1 143.5l177.5-180.7c8.1 8.8 17.9 20.3 26.5 30.9 1.7 2.1 3.5 4.3 5.1 6.3zM731.9 974.9c-.6 0-1.1-.2-1.6-.6-6.8-5.6-14.1-11.6-22.9-18.8-1.1-.9-1.2-2.4-.4-3.5.9-1.1 2.4-1.2 3.5-.4 8.9 7.2 16.1 13.2 22.9 18.8 1.1.9 1.2 2.5.3 3.5-.3.7-1 1-1.8 1zm9.1 67.8c-.7 0-1.4-.3-1.9-.9-23.4-28-46.1-44.8-46.3-44.9-1.1-.8-1.4-2.4-.5-3.5s2.4-1.4 3.5-.5c.2.2 23.4 17.2 47.2 45.8.9 1.1.7 2.6-.3 3.5-.6.3-1.1.5-1.7.5z"/></g><path d="M526.6 136.5c1.4 110.4-86.4 182.8-171.4 163.1-85.1-19.7-192 16-231.1 112.1C67.5 551 171 604.9 58.5 714.8c-93.7 91.6-78.3 221.4 71.6 282.8 0 0 295.4 48.8 362.2-8.7 54-46.5 87.1-105.8 109-178.2 48.9-162-10-275.8-10-275.8l36.1-267.4z" fill="#5b2448"/><path d="M798.1 333.5c-13.9 8.9-29.3 10.8-55.7 4.2-6.1 14.9-10.7 92.4 7.5 147.3-21.8 35.3-149.8 54.9-195.2-20.5 48.5-77.4 61.4-158.5 57.1-177.9L557.9 212c-1.4-1.7-2.8-3.5-4.1-5.2-7-9.4-2.8-21.7-6.5-32.5-22.2-63.2 3.4-134.3 84.3-157.7 1.1-.3 8.3-2.4 8.3-2.5 16.9-4.5 28.1-4.8 45.5-3.4 39.2 3.1 71.2 20.6 93.8 52.4 9.4 13.2 18.2 24 24.7 38.8 1.7 3.9 3.2 7.9 4.6 11.8.1.3.2.5.3.8 0 .1 0 .1.1.2 0 .1.1.2.1.3v.2c0 .1.1.3.1.4v.2c.8 2.1 3.1 8.7 6.1 17.8.4 1.3.9 2.8 1.4 4.2l1.2 3.6c0 .2.1.3.1.5 5.4 17 11.8 39.7 15 60.5 6 38.4-.7 109.2-34.8 131.1z" fill="#f4ada2"/><circle cx="693.4" cy="250.8" fill="#e57281" opacity=".52" r="31.4"/><path d="M702.5 162c-14.8 8.9-20.3 24.8-15.1 31.3s21 3.9 34-7.6c13.3-11.8 20.1-25.6 15.1-31.3-5.2-5.9-19.3-1.3-34 7.6zM818 142c-2.1.9-4.4 1.6-6.8 2.2-16 3.9-30.1 1.8-31.8-5-1.8-7 9.1-16.7 23.6-23.3 1.9-.8 3.7-1.6 5.5-2 .1.3.2.5.3.8 0 .1 0 .1.1.2 0 .1.1.2.1.4v.2c0 .1.1.3.1.4v.2c.8 2.1 3.1 8.7 6.1 17.8.8 2.4 1.7 5 2.5 7.8.3 0 .3.1.3.3z" fill="#5b2448"/><path d="M790.1 258.9c-5.9 7.2-16.5 8.5-24.9 5.2-4.2-1.8-7.9-4.8-10.3-8.6-2.5-3.8-3.7-8.5-3-12.9.2-1.2 1.3-2.1 2.5-1.9 1 .2 1.8 1 1.9 2 .5 3.4 1.8 6.5 3.9 9.1 6 7.9 18.6 9.8 26.8 4.1 1.9-1.8 4.7.9 3.1 3z" fill="#9b3c82"/><path d="M713.8 203.1c6.6-3.4 22.5-11.1 35.9-23.3 1.9-1.7 4.8-1.6 6.5.3 4.4 4.9 10 14-.1 21.1-12.5 8.8-36.1 10.5-42.6 5.8-1.4-.9-1.2-3.1.3-3.9zm103.3-45.7c-6.5 2.2-15.7 3.7-29.5 5.5-2.5.3-4 3.1-3.4 5.5 1.5 6.4 5.5 15.3 17.5 11.9s18.6-13 18.9-21c.1-1.7-1.9-2.5-3.5-1.9zM743 92.2s-23 34.5-49.5 57c-30.3 25.7-77 50.1-135.9 61.7-1.2-1.4-2.4-2.8-3.7-4.1-7-9.4-18.9-30.5-22.8-41.2-11.8-31.8-6.5-128.5 86.4-157.6 97.4-30.5 151.7 35.5 163 51.5 9.4 13.2 16.9 27.7 23.4 42.5 1.7 3.9 1.1 2.8 2.7 6.7.1.1-18.6-1.7-30.3-4.7-11.9-2.9-33.3-11.8-33.3-11.8z" fill="#5b2448"/><path d="M621.9 206.9s-32.8-24.7-65.4-8.8c-30.8 15-20.6 63.7 39.4 84.7 9.2 3.2 25.4 6.2 37.9 5.7z" fill="#f4ada2"/><path d="M694.9 322c-6.9 7.1-1.1 40.7 42.3 58.5.8-20.6 3.1-36.6 5.2-42.8-12.9-5.3-10.4-4-25.2-11.1-7.5-3.6-16.3-10.7-22.3-4.6z" fill="#5b2448"/><path d="M630.9 293.2c1.1-.1 1.9-1 1.9-2.1-.1-1.1-1-1.9-2.1-1.9-.2 0-8 .4-18.6-.9.2 1.2.3 2.6.4 4.2 5.9.7 10.8.8 14.2.8 2.4 0 3.9-.1 4.2-.1zm-13.4-42.3c-.6 0-1.3-.3-1.6-.9-21.1-30.1-48.9-24.1-50.1-23.9-1.1.2-2.1-.4-2.4-1.5-.2-1.1.4-2.1 1.5-2.4.3-.1 31.6-7 54.3 25.5.6.9.4 2.2-.5 2.8-.4.3-.8.4-1.2.4z" fill="#9b3c82"/><path d="M790.8 225.3c-.8 0-1.5-.5-1.9-1.3-.4-1 .1-2.2 1.1-2.6 5.6-2.2 12.3-10 12.2-14.3 0-.9-.3-2-2.2-2.7-13.5-5.1-18.1-16-18.3-16.5-.4-1 .1-2.2 1.1-2.6s2.2.1 2.6 1.1c0 .1 4.2 9.8 16 14.2 3 1.1 4.7 3.4 4.7 6.4.1 6.5-8.1 15.4-14.8 18 0 .2-.3.3-.5.3z" fill="#5b2448"/><path d="M516.1 866.8c0 49.4-129.5 127.3-178.8 127.3s0-77.9 0-127.3 40-89.4 89.4-89.4 89.4 40 89.4 89.4z" fill="#21a0aa"/><path d="M1050.2 676.5c-.2-.1-.8-.3-1.7-.5-1.6-.4-4.3-.8-8.2-.6-19.2.1-63.3 10.8-119.4 91.5-4.8 6.9-9.5 13.5-14.2 19.7-13.5 16.1-26.5 32-37.1 45.2-15.5 19.2-25.9 32.6-25.9 32.6l48.6 195.9s-11.5 25.7-42.4 33c-37.2 8.8-98.1 20.3-181.2 2.2-182.7-39.9-388.7-5.6-388.7-5.6l174.4-242.7 150.5-378.3c27.1 18.4 82.3 68.2 141.8 9.7-4-22.7-5.7-33.7-5.7-33.7s42.1-30.1 94 63.8c64.6 117.1 128.1 124.8 215.2 167.8z" fill="#21a0aa"/><path d="M423.7 849.7c-.2 0-.4 0-.6-.1-80.7-20.3-146.5-43.1-195.8-67.8-42.1-21.1-71.2-43.3-84.2-64.3-10.1-16.3-11.2-35.4-2.8-47.6 7.9-11.5 23.2-15.6 42.9-11.7 1.4.3 2.2 1.6 2 2.9-.3 1.4-1.6 2.2-2.9 2-17.6-3.5-31.1 0-37.8 9.7-7.3 10.6-6.1 27.5 2.9 42.1 13.3 21.4 66.8 76.9 277 129.9 1.3.3 2.2 1.7 1.8 3-.4 1.2-1.4 1.9-2.5 1.9z" fill="#21a0aa"/><path d="M964.8 1148.1c-16.7-16-42.2-32.7-82.8-51.8 42.8-32.7 39.5-41.7-3.4-33.8-18.4 3.4-35.9 6.7-55.2 7.5h-.3c-149.7-62-367.3-120.5-470.9-122.5h-.4l87.1-100.2 138-260.5-163.6-95.5S254 612.4 137.2 807.6c-23 38.5-80 135.1-65.3 220.6 20.4 118.3 145.4 148.2 188.3 157.7.4.1.8.2 1.3.3 149.7 32.7 309.4-8.9 409 9.1.8.1 1.7.3 2.5.4 11.4 2.2 22.9 4.9 34.4 8.1 117.7 31.9 231.6 102.5 145.4 13.2 0 0 122.7 78.4 73.3 12.4 1.3.6 80 37.8 20.3-28.2-32.7-36.1-53-50.7-64.3-60.9 42.7 20.2 149.8 72.1 82.7 7.8zM187.2 728.2l-.2.3s.1-.2.2-.3z" fill="#f4ada2"/><path d="M853.8 1166.8c-.6.9-.3 2.2.7 2.7 24.4 14.6 48.5 36.7 73.7 60.8 2.2 1 5.9 2.6 10.2 4.2-28-26.9-54.7-52.1-81.9-68.4-.9-.5-2.2-.2-2.7.7zm-19.8 29.8c-.9-.6-2.2-.3-2.8.6s-.3 2.2.6 2.8c.2.1 13.6 8.9 26.4 20.4 3.5 2.2 8.5 5.2 14.3 8.6-14.9-16.9-37.5-31.7-38.5-32.4zm52.4-103.8c-9.1-4.1-30-13.5-52.6-23.5-2.8.2-5.7.4-8.6.6 23.7 10.4 46.6 20.7 57.6 25.7 1.3-1 2.5-1.9 3.6-2.8zm-31.7 38.2c-.4 1 .1 2.2 1.1 2.6.2.1 20.5 8 46.5 24.1-6.8-6-12.4-10.5-16.9-14.4-16.6-8.9-28.1-13.4-28.2-13.5-.9-.3-2.1.2-2.5 1.2zM285.8 967.3c.3.7 1.1 1.1 1.8 1.1.3 0 .6-.1.9-.2 22.3-10.7 49.2-18.3 72-20.6-2.9-.1-5.8-.2-8.8-.3l2.6-3c-22 2.9-46.7 10.3-67.6 20.3-1 .5-1.4 1.7-.9 2.7zm-86-253.3s48.8 20.3 113.9 78.2c49 43.7 110.8 54.7 122.4 59.3 36.7 14.7-16.3-116.2-16.3-116.2s-3.8-108-123.6-99.9c-50.4 3.4-96.4 78.6-96.4 78.6z" fill="#9b3c82"/><path d="M445.8 854.2c63.9-70.4 168.6-263.3 159.1-385.3-9.7-125.6-137.5-62.8-289 76.8-64.7 59.7-148.3 100.7-169.9 116.9 50.9-10.8 123.4 41.1 181.8 106.1 24.2 26.9 62.8 72.5 118 85.5z" fill="#21a0aa"/><path d="M848.7 858.6 745.6 479.7c-.9.9-2.3 2.2-4.1 3.8l103.4 379.8zm-237-384c-1.7-1.4-3.4-2.8-5.2-4.3 4 105.5-51.1 230.6-168.2 381.9 1.7.5 3.5 1 5.2 1.4 68-88 115.8-168.8 142.3-240.1 18.4-49.8 26.9-95.4 25.9-138.9z" fill="#6ce0dc"/><path d="M1244.5 559.2c225.4-154.7 162.6-56.5 162.6-56.5s-19.1 28.2-26 37.2c-19.8 26.1-52.2 71.1-69.1 93.2z" fill="#f4ada2"/></svg></g><g transform="translate(2025.6 1232.3999999999999) rotate(-3.619577576004963 145.79999999999995 208.20000000000005) scale(1.555341017585594 1.5618963311940408)"><svg width="187.483" height="266.599" viewBox="0 0 187.483 266.599"><rect fill="#fff" height="238.206" rx="21.026" transform="matrix(.9591512 .28289394 -.28289394 .9591512 41.539 -21.074)" width="121.214" x="33.134" y="14.196"/><g fill="#5b2448"><path d="M104 266.607a28.148 28.148 0 0 1-7.966-1.158L20.1 243.054a28.058 28.058 0 0 1-18.952-34.81L56.642 20.1A28.022 28.022 0 0 1 91.45 1.151l75.93 22.394a28.058 28.058 0 0 1 18.952 34.81L130.841 246.5A28.066 28.066 0 0 1 104 266.607zM83.5 14a14.045 14.045 0 0 0-13.43 10.063L14.578 212.205a14.043 14.043 0 0 0 9.486 17.421l75.928 22.395a14.027 14.027 0 0 0 17.421-9.485l55.492-188.142a14.043 14.043 0 0 0-9.486-17.421L87.49 14.578A14.106 14.106 0 0 0 83.5 14z"/><path d="M146.279 37.192a6.01 6.01 0 0 1-1.7-.247L101.376 24.2a6 6 0 0 1 3.395-11.51l43.2 12.742a6 6 0 0 1-1.694 11.757z"/></g></svg></g><g transform="translate(902.4 700.8) rotate(0.0 89.99999999999994 161.39999999999998) scale(1.4537231465029874 1.4630166787527192)"><svg width="123.82" height="220.64" viewBox="0 0 123.82 220.64"><path d="M7.59 207.83s17.26 4.09 29.63 12.81C14.48 158 30.3 41 123.5 20.32c3.37-7.92-20-32.82-61.21-12.55-33.75 16.58-80.84 85.02-54.7 200.06z" fill="#F94F46"/></svg></g><g transform="translate(2570.4 1099.2) rotate(0.0 124.79999999999995 263.4) scale(1.252509032517061 1.2490812092471841)"><svg width="199.28" height="421.75" viewBox="0 0 199.28 421.75"><path d="M199.26 324.22a2.49 2.49 0 0 0-1.53-2l-41.53-16.93C203.65 185.46 145.67 49 26.06.19a2.48 2.48 0 0 0-3.26 1.37L.19 57a2.49 2.49 0 0 0 1.37 3.26c86.5 35.3 128.54 133.84 94.6 220.56l-41.47-16.96a2.5 2.5 0 0 0-3.42 2.66l21 153.06a2.51 2.51 0 0 0 1.53 2 2.44 2.44 0 0 0 .95.19 2.49 2.49 0 0 0 1.53-.53l122.08-94.69a2.51 2.51 0 0 0 .9-2.33z" fill="#b0dcf7"/></svg></g><g transform="translate(2017.1999999999998 1068.0) rotate(-34.95979493693368 -73.79999999999995 157.19999999999993) scale(-0.7406663990365311 0.7454653230586837)"><svg width="199.28" height="421.75" viewBox="0 0 199.28 421.75"><path d="M199.26 324.22a2.49 2.49 0 0 0-1.53-2l-41.53-16.93C203.65 185.46 145.67 49 26.06.19a2.48 2.48 0 0 0-3.26 1.37L.19 57a2.49 2.49 0 0 0 1.37 3.26c86.5 35.3 128.54 133.84 94.6 220.56l-41.47-16.96a2.5 2.5 0 0 0-3.42 2.66l21 153.06a2.51 2.51 0 0 0 1.53 2 2.44 2.44 0 0 0 .95.19 2.49 2.49 0 0 0 1.53-.53l122.08-94.69a2.51 2.51 0 0 0 .9-2.33z" fill="#b0dcf7"/></svg></g><g transform="translate(1874.3999999999999 676.8) rotate(0.0 431.4 255.0) scale(1.252776930783639 1.253194417141734)"><svg width="688.71" height="406.96" viewBox="0 0 688.71 406.96"><path d="M545.73 121a144.18 144.18 0 0 0-22.52 1.77 174.15 174.15 0 0 0-315.78-38.14 82.16 82.16 0 0 0-113.09 70.54A128.17 128.17 0 0 0 128.16 407h417.57a143 143 0 1 0 0-286z" fill="#66b0f0"/></svg></g><g transform="translate(2100.0 1332.0) rotate(0.0 78.59999999999991 72.60000000000002) scale(1.2567956507834972 1.2531285060844053)"><svg width="125.08" height="115.87" viewBox="0 0 125.08 115.87"><path transform="translate(14.31 -12.36) rotate(12.74)" style="fill:#b0dcf7" d="M9.12 10.61h106.84v94.65H9.12z"/></svg></g><g transform="translate(1929.6 1384.8) rotate(11.423407226234449 88.79999999999995 112.79999999999995) scale(1.6863854758151806 1.695462983143069)"><svg width="105.314" height="133.061" viewBox="0 0 105.314 133.061"><path d="M0 81.612c133.86-137.12 102-60 102-60l-.518 1.254C91.073 43.374 85.526 62.734 80.139 81.534c-4.755 16.6-9.672 33.756-17.907 51.527" fill="#f4ada2"/></svg></g><g transform="translate(2174.4 894.0) rotate(0.0 151.19999999999982 109.79999999999995) scale(0.29473138411666805 0.2977259755067509)"><svg width="1026.019" height="737.591" viewBox="0 0 1026.019 737.591"><path d="M404.137 729.952 2.571 178.25A13.3 13.3 0 0 1 13.3 157.117l237.309-.509a45.456 45.456 0 0 1 36.847 18.7l129.4 177.779a18.565 18.565 0 0 0 29.249.987L726.482 18.932A52.834 52.834 0 0 1 767.176 0l242.88.79a15.984 15.984 0 0 1 12.208 26.241L433.386 730.939a18.566 18.566 0 0 1-29.249-.987z" fill="#FFF"/></svg></g><g transform="translate(2071.2 1804.8) rotate(0.0 358.79999999999995 205.19999999999993) scale(1.2750079954514761 1.2753262896208821)"><svg width="562.82" height="321.8" viewBox="0 0 562.82 321.8"><path d="M10.59 321.8H413a16.14 16.14 0 0 0 14.72-9.51L561.88 14.92A10.58 10.58 0 0 0 552.23 0H154a22.63 22.63 0 0 0-20.63 13.32L1 306.87a10.58 10.58 0 0 0 9.59 14.93z" fill="#b0dcf7"/></svg></g></svg>