<svg xmlns="http://www.w3.org/2000/svg"  viewBox="0 0 100 100" width="100px" height="100px"><path fill="#c7ede6" d="M87.215,56.71C88.35,54.555,89,52.105,89,49.5c0-6.621-4.159-12.257-10.001-14.478 C78.999,35.015,79,35.008,79,35c0-11.598-9.402-21-21-21c-9.784,0-17.981,6.701-20.313,15.757C36.211,29.272,34.638,29,33,29 c-7.692,0-14.023,5.793-14.89,13.252C12.906,43.353,9,47.969,9,53.5C9,59.851,14.149,65,20.5,65c0.177,0,0.352-0.012,0.526-0.022 C21.022,65.153,21,65.324,21,65.5C21,76.822,30.178,86,41.5,86c6.437,0,12.175-2.972,15.934-7.614C59.612,80.611,62.64,82,66,82 c4.65,0,8.674-2.65,10.666-6.518C77.718,75.817,78.837,76,80,76c6.075,0,11-4.925,11-11C91,61.689,89.53,58.727,87.215,56.71z"/><path fill="#fff" d="M18.405 48H8.5C8.224 48 8 47.776 8 47.5S8.224 47 8.5 47h9.905c.276 0 .5.224.5.5S18.682 48 18.405 48zM21.5 48h-1c-.276 0-.5-.224-.5-.5s.224-.5.5-.5h1c.276 0 .5.224.5.5S21.777 48 21.5 48zM26.491 50H17.5c-.276 0-.5-.224-.5-.5s.224-.5.5-.5h8.991c.276 0 .5.224.5.5S26.767 50 26.491 50zM15.5 50h-1c-.276 0-.5-.224-.5-.5s.224-.5.5-.5h1c.276 0 .5.224.5.5S15.777 50 15.5 50zM12.5 50h-2c-.276 0-.5-.224-.5-.5s.224-.5.5-.5h2c.276 0 .5.224.5.5S12.777 50 12.5 50zM18.5 52h-2c-.276 0-.5-.224-.5-.5s.224-.5.5-.5h2c.276 0 .5.224.5.5S18.776 52 18.5 52zM21.5 43c-.177 0-.823 0-1 0-.276 0-.5.224-.5.5 0 .276.224.5.5.5.177 0 .823 0 1 0 .276 0 .5-.224.5-.5C22 43.224 21.776 43 21.5 43zM21.5 45c-.177 0-4.823 0-5 0-.276 0-.5.224-.5.5 0 .276.224.5.5.5.177 0 4.823 0 5 0 .276 0 .5-.224.5-.5C22 45.224 21.776 45 21.5 45zM26.5 47c-.177 0-2.823 0-3 0-.276 0-.5.224-.5.5 0 .276.224.5.5.5.177 0 2.823 0 3 0 .276 0 .5-.224.5-.5C27 47.224 26.776 47 26.5 47zM85 64H75c-.276 0-.5-.224-.5-.5S74.724 63 75 63h10c.276 0 .5.224.5.5S85.276 64 85 64zM89 64h-2c-.276 0-.5-.224-.5-.5S86.724 63 87 63h2c.276 0 .5.224.5.5S89.276 64 89 64zM94 66H84c-.276 0-.5-.224-.5-.5S83.724 65 84 65h10c.276 0 .5.224.5.5S94.277 66 94 66zM82 66h-1c-.276 0-.5-.224-.5-.5S80.724 65 81 65h1c.276 0 .5.224.5.5S82.276 66 82 66zM78.875 66H77c-.276 0-.5-.224-.5-.5S76.724 65 77 65h1.875c.276 0 .5.224.5.5S79.151 66 78.875 66zM88 62h-5c-.276 0-.5-.224-.5-.5S82.724 61 83 61h5c.276 0 .5.224.5.5S88.277 62 88 62zM85 68h-2c-.276 0-.5-.224-.5-.5S82.724 67 83 67h2c.276 0 .5.224.5.5S85.276 68 85 68z"/><path fill="#fdfcef" d="M64.25,38.5c0,0-1.567,0-3.5,0s-3.5-1.567-3.5-3.5c0-1.781,1.335-3.234,3.055-3.455 C60.277,31.366,60.25,31.187,60.25,31c0-1.933,1.567-3.5,3.5-3.5c1.032,0,1.95,0.455,2.59,1.165 c0.384-1.808,1.987-3.165,3.91-3.165c2.209,0,4,1.791,4,4c0,0.191-0.03,0.374-0.056,0.558c0.428-0.344,0.965-0.558,1.556-0.558 c1.228,0,2.245,0.887,2.455,2.055c0.179-0.028,0.358-0.055,0.545-0.055c1.933,0,3.5,1.567,3.5,3.5s-1.567,3.5-3.5,3.5 s-7.5,0-7.5,0V39h-7V38.5z"/><path fill="#472b29" d="M62.5 34c.138 0 .25-.112.25-.25 0-1.223-.995-2.218-2.218-2.218-.034.009-.737-.001-1.244.136-.133.036-.212.173-.176.306.036.134.173.213.306.176.444-.12 1.1-.12 1.113-.118.948 0 1.719.771 1.719 1.718C62.25 33.888 62.362 34 62.5 34zM69.25 38A.5.5 0 1 0 69.25 39 .5.5 0 1 0 69.25 38z"/><path fill="#472b29" d="M60.75,39h3.5c0.276,0,0.5-0.224,0.5-0.5s-0.224-0.5-0.5-0.5h-3.5c-1.654,0-3-1.346-3-3 c0-1.496,1.125-2.768,2.618-2.959c0.134-0.018,0.255-0.088,0.336-0.196s0.115-0.244,0.094-0.377 C60.775,31.314,60.75,31.16,60.75,31c0-1.654,1.346-3,3-3c0.85,0,1.638,0.355,2.219,1c0.125,0.139,0.321,0.198,0.5,0.148 c0.182-0.049,0.321-0.195,0.36-0.379C67.17,27.165,68.609,26,70.25,26c1.93,0,3.5,1.57,3.5,3.5c0,0.143-0.021,0.28-0.041,0.418 c-0.029,0.203,0.063,0.438,0.242,0.54c0.179,0.102,0.396,0.118,0.556-0.01C74.872,30.155,75.301,30,75.75,30 c0.966,0,1.792,0.691,1.963,1.644c0.048,0.267,0.296,0.446,0.569,0.405C78.436,32.025,78.59,32,78.75,32c1.654,0,3,1.346,3,3 s-1.346,3-3,3h-7.5c-0.276,0-0.5,0.224-0.5,0.5s0.224,0.5,0.5,0.5h7.5c2.206,0,4-1.794,4-4s-1.794-4-4-4 c-0.059,0-0.116,0.002-0.174,0.006C78.162,29.82,77.039,29,75.75,29c-0.349,0-0.689,0.061-1.011,0.18 C74.574,26.847,72.624,25,70.25,25c-1.831,0-3.466,1.127-4.153,2.774C65.417,27.276,64.595,27,63.75,27c-2.206,0-4,1.794-4,4 c0,0.048,0.001,0.095,0.004,0.142C58.011,31.59,56.75,33.169,56.75,35C56.75,37.206,58.544,39,60.75,39z"/><path fill="#472b29" d="M66.25,38c0.159,0,0.841,0,1,0c0.276,0,0.5,0.224,0.5,0.5c0,0.276-0.224,0.5-0.5,0.5 c-0.159,0-0.841,0-1,0c-0.276,0-0.5-0.224-0.5-0.5C65.75,38.224,65.974,38,66.25,38z"/><g><path fill="#be7841" d="M33.521,76.3c-1.004,0-1.821-0.817-1.821-1.821V33.521c0-1.004,0.817-1.821,1.821-1.821h31.957 c1.004,0,1.821,0.817,1.821,1.821v40.957c0,1.004-0.817,1.821-1.821,1.821H33.521z"/><path fill="#472b29" d="M65.478,32.4c0.619,0,1.122,0.503,1.122,1.122v40.956c0,0.619-0.503,1.122-1.122,1.122H33.522 c-0.619,0-1.122-0.503-1.122-1.122V33.522c0-0.619,0.503-1.122,1.122-1.122H65.478 M65.478,31H33.522 C32.129,31,31,32.129,31,33.522v40.956C31,75.871,32.129,77,33.522,77h31.956C66.871,77,68,75.871,68,74.478V33.522 C68,32.129,66.871,31,65.478,31L65.478,31z"/></g><g><path fill="#fffef4" d="M34.7 72.3L34.7 35.7 64.3 35.7 64.3 65.742 57.491 72.3z"/><path fill="#472b29" d="M63.6,36.4v29.045L57.209,71.6H35.4V36.4H63.6 M65,35H34v38h23.774L65,66.04V35L65,35z"/></g><g><path fill="#88cdd7" d="M63.062 66L57.996 70.688 57.967 66z"/></g><g><path fill="#f2df5e" d="M44.208,38.3c-0.831,0-1.508-0.58-1.508-1.293v-3.233c0-0.712,0.33-0.822,0.438-0.858 c0.036-0.013,0.071-0.027,0.104-0.045l3.907-2.059c1.053-0.515,1.967-0.759,2.86-0.759c0.896,0,1.835,0.246,2.952,0.772 l3.866,2.309c0.033,0.02,0.067,0.036,0.103,0.05c0.358,0.141,0.368,0.544,0.368,0.59v3.233c0,0.713-0.677,1.293-1.508,1.293 H44.208z"/><path fill="#472b29" d="M50.011,30.753c0.775,0,1.6,0.216,2.594,0.677l3.865,2.304c0.042,0.025,0.085,0.048,0.129,0.068 v3.204c0,0.321-0.37,0.593-0.808,0.593H44.208c-0.438,0-0.808-0.272-0.808-0.593v-3.234c0-0.101,0.011-0.173,0.022-0.217 c0.05-0.02,0.099-0.042,0.147-0.067l3.87-2.039C48.411,30.974,49.228,30.753,50.011,30.753 M50.011,29.353 c-1.027,0-2.043,0.28-3.187,0.839l-3.907,2.058C42.187,32.495,42,33.188,42,33.773v3.234C42,38.108,42.989,39,44.208,39h11.583 C57.011,39,58,38.108,58,37.007v-3.234c0-0.388-0.188-0.996-0.813-1.241l-3.925-2.34C52.076,29.633,51.038,29.353,50.011,29.353 L50.011,29.353z"/></g><g><path fill="#472b29" d="M50 32A1 1 0 1 0 50 34A1 1 0 1 0 50 32Z"/></g><g><path fill="#472b29" d="M53.5,47h-5c-0.276,0-0.5-0.224-0.5-0.5s0.224-0.5,0.5-0.5h5c0.276,0,0.5,0.224,0.5,0.5 S53.776,47,53.5,47z"/></g><g><path fill="#472b29" d="M45.5,47h-8c-0.276,0-0.5-0.224-0.5-0.5s0.224-0.5,0.5-0.5h8c0.276,0,0.5,0.224,0.5,0.5 S45.776,47,45.5,47z"/></g><g><path fill="#472b29" d="M53.5,54h-16c-0.276,0-0.5-0.224-0.5-0.5s0.224-0.5,0.5-0.5h16c0.276,0,0.5,0.224,0.5,0.5 S53.776,54,53.5,54z"/></g><g><path fill="#472b29" d="M47.063,61H37.5c-0.276,0-0.5-0.224-0.5-0.5s0.224-0.5,0.5-0.5h9.563c0.276,0,0.5,0.224,0.5,0.5 S47.339,61,47.063,61z"/></g><g><path fill="#472b29" d="M53.5,61h-4c-0.276,0-0.5-0.224-0.5-0.5s0.224-0.5,0.5-0.5h4c0.276,0,0.5,0.224,0.5,0.5 S53.776,61,53.5,61z"/></g><g><path fill="#472b29" d="M57.866,47.496c-0.132,0-0.26-0.053-0.354-0.146l-1.924-1.924c-0.195-0.195-0.195-0.512,0-0.707 s0.512-0.195,0.707,0l1.517,1.517l2.539-3.386c0.167-0.221,0.481-0.265,0.7-0.101c0.221,0.166,0.266,0.479,0.101,0.7l-2.886,3.847 c-0.088,0.116-0.221,0.188-0.365,0.199C57.89,47.496,57.878,47.496,57.866,47.496z"/></g><g><path fill="#472b29" d="M57.866,55.012c-0.132,0-0.26-0.053-0.354-0.146l-1.924-1.923c-0.195-0.195-0.195-0.512,0-0.707 s0.512-0.195,0.707,0l1.517,1.516l2.539-3.386c0.167-0.221,0.481-0.265,0.7-0.101c0.221,0.166,0.266,0.479,0.101,0.7l-2.886,3.847 c-0.087,0.116-0.221,0.188-0.365,0.199C57.89,55.012,57.878,55.012,57.866,55.012z"/></g><g><path fill="#472b29" d="M57.866,61.626c-0.132,0-0.26-0.053-0.354-0.146l-1.924-1.924c-0.195-0.195-0.195-0.512,0-0.707 s0.512-0.195,0.707,0l1.517,1.517l2.539-3.387c0.167-0.221,0.481-0.266,0.7-0.101c0.221,0.166,0.266,0.479,0.101,0.7l-2.886,3.848 c-0.087,0.116-0.221,0.188-0.365,0.199C57.89,61.626,57.878,61.626,57.866,61.626z"/></g><g><path fill="#472b29" d="M58.2,72h-1.4v-6.5c0-0.387,0.313-0.7,0.7-0.7H64v1.4h-5.8V72z"/></g><g><path fill="#fdfcef" d="M26,81h-5.75c-2.485,0.75-4.5-1.265-4.5-3.75c0-2.333,1.782-4.229,4.055-4.455 c-0.022-0.181-0.055-0.358-0.055-0.545c0-2.485,2.015-4.5,4.5-4.5c1.438,0,2.703,0.686,3.527,1.736 c0.14-2.636,2.302-4.736,4.973-4.736c2.761,0,5,2.239,5,5c0,0.446-0.077,0.87-0.187,1.282c0.642-0.777,1.6-1.282,2.687-1.282 c1.781,0,3.234,1.335,3.455,3.055c0.181-0.022,0.358-0.055,0.545-0.055c2.485,0,4.5,2.015,4.5,4.5s-2.015,4.5-4.5,3.75h-9.5H29v1 h-3V81z"/><path fill="#472b29" d="M32.5,64c3.033,0,5.5,2.467,5.5,5.5c0,0.016,0,0.031,0,0.047C38.602,69.192,39.29,69,40,69 c1.831,0,3.411,1.261,3.858,3.005C43.905,72.002,43.952,72,44,72c3.099,0,5.549,2.834,4.893,6.047 C48.413,80.398,46.204,82,43.804,82l-14.679,0c-0.276,0-0.5-0.224-0.5-0.5c0-0.276,0.224-0.5,0.5-0.5h14.718 c1.92,0,3.687-1.282,4.071-3.163C48.439,75.267,46.479,73,44,73c-0.117,0-0.23,0.017-0.343,0.032l-0.141,0.019 c-0.021,0.003-0.041,0.004-0.062,0.004c-0.246,0-0.462-0.185-0.495-0.437C42.768,71.125,41.496,70,40,70 c-0.885,0-1.723,0.401-2.301,1.1c-0.098,0.118-0.241,0.182-0.386,0.182c-0.078,0-0.156-0.018-0.228-0.056 c-0.209-0.107-0.314-0.346-0.254-0.573c0.16-0.6,0.202-1.069,0.147-1.549c-0.24-2.127-1.959-3.909-4.092-4.088 c-2.551-0.215-4.725,1.728-4.859,4.246c-0.011,0.208-0.15,0.387-0.349,0.45c-0.05,0.016-0.101,0.024-0.152,0.024 c-0.15,0-0.296-0.069-0.392-0.192C26.362,68.563,25.221,68,24,68c-2.206,0-4,1.794-4,4c0,0.117,0.017,0.23,0.032,0.343 l0.019,0.141c0.016,0.134-0.022,0.268-0.106,0.373c-0.084,0.105-0.207,0.172-0.34,0.185c-2.352,0.234-4.042,2.429-3.504,4.865 C16.509,79.76,18.275,81,20.173,81l5.952,0c0.276,0,0.5,0.224,0.5,0.5c0,0.276-0.224,0.5-0.5,0.5h-5.938 c-2.467,0-4.708-1.704-5.115-4.138c-0.462-2.763,1.344-5.22,3.931-5.74C19.001,72.082,19,72.041,19,72c0-2.757,2.243-5,5-5 c1.176,0,2.293,0.416,3.183,1.164C27.781,65.76,29.945,64,32.5,64L32.5,64z"/><path fill="#472b29" d="M34.25 71.25c1.403 0 2.609.999 2.913 2.341.367-.222.786-.341 1.212-.341 1.202 0 2.198.897 2.353 2.068.203-.045.396-.068.585-.068 1.529 0 2.811 1.2 2.918 2.732.009.138-.094.257-.232.267-.006 0-.012 0-.018 0-.13 0-.24-.101-.249-.232-.089-1.271-1.151-2.268-2.419-2.268-.229 0-.47.042-.738.127-.022.007-.045.01-.067.01-.055 0-.11-.02-.156-.054-.064-.047-.102-.129-.102-.209 0-1.034-.841-1.875-1.875-1.875-.447 0-.885.168-1.231.473-.047.041-.106.063-.165.063-.032 0-.063-.006-.093-.019-.088-.035-.148-.117-.155-.212-.102-1.292-1.191-2.305-2.479-2.305-.208 0-.425.034-.682.107-.023.007-.047.01-.07.01-.109 0-.207-.073-.239-.182-.038-.133.039-.271.172-.309C33.733 71.29 33.994 71.25 34.25 71.25L34.25 71.25zM20.367 72.75c1.326 0 2.508.897 2.874 2.182.038.133-.039.271-.172.309-.023.007-.046.01-.068.01-.109 0-.209-.072-.24-.182-.305-1.071-1.289-1.818-2.393-1.818-.117 0-.23.014-.342.029-.012.002-.023.003-.035.003-.121 0-.229-.092-.246-.217-.019-.137.077-.263.214-.281C20.092 72.766 20.228 72.75 20.367 72.75L20.367 72.75z"/></g></svg>