<svg xmlns="http://www.w3.org/2000/svg" viewBox="0 0 3000 3000" width="3000" height="3000"><g transform="translate(321.8181818181818 1344.5454545454545) rotate(0.0 730.2272727272727 708.4090909090908) scale(1.3751757704044543 1.3754194323246423)"><svg width="1062.013" height="1030.099" viewBox="0 0 1062.013 1030.099"><path d="M395.878 985.453c130.304-70.356 256.124-157.066 372.359-258.37 138.819-120.988 153.274-331.596 32.286-470.42-120.988-138.817-332.171-153.923-470.419-32.285-73.822 64.953-166.393 129.414-264.249 181.263 52.653 252.737 157.252 451.616 330.022 579.813z" fill="#fff"/><path d="M395.878 987.453a2 2 0 0 1-1.192-.394c-84.397-62.624-155.256-144.662-210.609-243.836-52.867-94.72-93.301-208.162-120.179-337.175a2.001 2.001 0 0 1 1.021-2.176c94.268-49.948 187.977-114.228 263.864-180.997 66.888-58.852 152.859-87.999 242.05-82.096 43.678 2.895 85.723 14.041 124.965 33.129 40.607 19.752 76.35 47.152 106.233 81.439 58.866 67.544 87.906 153.967 81.771 243.35-6.135 89.382-46.71 171.025-114.252 229.892-114.806 100.059-240.207 187.072-372.724 258.623-.298.161-.625.24-.95.24zM68.121 406.703c55.408 264.765 162.696 453.329 327.927 576.385 131.845-71.297 256.615-157.93 370.875-257.514 137.764-120.066 152.16-329.83 32.094-467.597-58.495-67.116-139.626-107.319-228.447-113.206-88.117-5.827-173.06 22.965-239.143 81.108-75.758 66.654-169.219 130.834-263.305 180.823z" fill="#190e64"/><path d="M768.135 509.397s35.054-15.237 47.025-20.264c38.56-16.191 157.996 1.55 190.602 4.996 39.696 4.196 54.116 46.015 54.25 77.741.145 34.278-25.401 73.762-61.6 73.464-23.184-.191-127.04-1.231-127.04-1.231-42.775 43.659-86.736 73.893-135.303 110.441" fill="#fff"/><path d="M736.071 756.543a1.998 1.998 0 0 1-1.204-3.598c8.173-6.15 16.289-12.177 24.139-18.005 38.81-28.815 75.467-56.033 110.938-92.237.381-.39.905-.559 1.449-.601 1.038.011 104.119 1.043 127.036 1.231l.389.002c13.231 0 25.801-5.558 36.373-16.087 14.162-14.105 22.907-35.322 22.822-55.37-.11-26.091-11.283-71.408-52.46-75.761-4.417-.467-10.512-1.206-17.568-2.063-45.176-5.479-139.185-16.879-172.05-3.079-11.823 4.964-46.652 20.102-47.003 20.254a2 2 0 0 1-1.594-3.668c.351-.152 35.202-15.3 47.048-20.273 33.844-14.212 128.563-2.724 174.08 2.796 7.041.854 13.121 1.592 17.507 2.055 38.497 4.07 55.885 42.973 56.04 79.722.089 21.08-9.107 43.389-23.999 58.222-11.451 11.405-25.168 17.389-39.618 17.251-21.808-.18-116.189-1.123-126.192-1.223-35.505 36.126-72.09 63.289-110.813 92.04-7.845 5.824-15.956 11.848-24.119 17.989a1.987 1.987 0 0 1-1.2.402z" fill="#190e64"/><path d="M711.488 376.789s42.764-18.398 54.736-23.425c38.56-16.191 151.718-46.709 183.518-54.697 38.715-9.725 66.649 24.575 77.695 54.315 11.936 32.133 1.542 77.998-32.547 90.179-21.833 7.801-144.73 53.425-144.73 53.425l-79.406 51.94" fill="#fff"/><path d="M770.756 550.526a1.999 1.999 0 0 1-1.097-3.674l79.406-51.939c.125-.082.259-.149.398-.201 1.229-.456 123.159-45.718 144.754-53.435 12.595-4.5 22.615-14.099 28.979-27.758 8.44-18.118 9.347-41.047 2.366-59.841-9.085-24.459-35.175-63.16-75.333-53.072-29.195 7.333-144.566 38.366-183.231 54.602-11.826 4.966-54.292 23.234-54.72 23.418a1.997 1.997 0 0 1-2.627-1.047 1.999 1.999 0 0 1 1.047-2.627c.428-.185 42.909-18.46 54.751-23.432 38.535-16.182 149.798-46.251 183.806-54.793 37.548-9.436 67.262 21.108 80.058 55.559 7.34 19.76 6.386 43.87-2.49 62.923-6.825 14.649-17.634 24.967-31.259 29.836-21.147 7.557-138.726 51.196-144.497 53.339L771.849 550.2a1.991 1.991 0 0 1-1.093.326z" fill="#190e64"/><path d="M622.087 245.824c35.658-15.941 64.872-28.178 76.843-33.205 38.56-16.191 161.599-41.231 194.001-46.25 39.447-6.11 64.096 30.621 72.351 61.254 8.919 33.098-5.663 77.807-40.731 86.79-22.46 5.753-141.684 41.428-141.684 41.428l-77.222 50.511" fill="#fff"/><path d="M705.646 408.353a1.999 1.999 0 0 1-1.097-3.674l77.222-50.511c.161-.105.337-.187.521-.242 1.192-.356 119.521-35.752 141.762-41.449 12.956-3.318 23.819-11.951 31.416-24.964 10.077-17.262 13.097-40.01 7.881-59.368-6.79-25.193-29.209-66.15-70.114-59.799-31.977 4.953-154.902 29.897-193.533 46.117l-1.037.436c-12.304 5.166-41.117 17.263-75.764 32.752a2 2 0 1 1-1.633-3.653c34.688-15.508 63.531-27.617 75.848-32.788l1.037-.435c38.918-16.341 162.377-41.411 194.469-46.383 38.252-5.917 65.027 27.227 74.589 62.711 5.485 20.354 2.31 44.274-8.287 62.426-8.148 13.957-19.863 23.232-33.879 26.822-21.64 5.543-134.869 39.391-141.329 41.323l-76.979 50.352a1.991 1.991 0 0 1-1.093.326z" fill="#190e64"/><path d="M389.672 182.57c75.63-48.492 196.439-94.8 227.008-107.636 38.56-16.191 141.8-59.174 172.782-69.907 37.718-13.066 68.539 18.664 82.139 47.328 14.694 30.969 8.343 77.566-24.553 92.676-21.069 9.677-146.431 73.126-146.431 73.126l-79.901 52.263" fill="#fff"/><g fill="#190e64"><path d="M620.717 272.421a1.999 1.999 0 0 1-1.097-3.674l79.901-52.264c.062-.04.126-.077.191-.11 1.254-.635 125.639-63.577 146.5-73.16 12.154-5.582 21.299-16.019 26.445-30.18 6.828-18.785 5.729-41.707-2.864-59.82-11.184-23.573-40.546-59.85-79.678-46.296-34.923 12.098-158.667 63.985-172.662 69.861-4.099 1.722-9.704 3.997-16.801 6.879-46.916 19.05-144.541 58.688-209.902 100.597a2 2 0 1 1-2.159-3.367c65.673-42.108 163.529-81.841 210.556-100.936 7.084-2.877 12.681-5.148 16.757-6.86 14.007-5.882 137.861-57.814 172.902-69.953 36.58-12.678 68.848 15.159 84.6 48.36 9.037 19.045 10.19 43.147 3.011 62.901-5.521 15.189-15.388 26.41-28.535 32.448-20.542 9.436-142.121 70.947-146.265 73.044l-79.809 52.203a1.991 1.991 0 0 1-1.093.326zm-308.525 755.678C159.163 911.193.716 607.464 2.008 437.195c48.758-22.82 98.011-49.78 147.626-79.753-1.292 170.268 160.38 473.133 313.409 590.039-51.198 29.919-101.566 57.076-150.85 80.617z"/><path d="M312.193 1030.1c-.431 0-.859-.14-1.215-.411-72.99-55.761-150.814-156.396-213.52-276.103-29.62-56.546-54.157-114.663-70.957-168.069C8.606 528.628-.307 478.721.008 437.18a2 2 0 0 1 1.152-1.796c46.574-21.798 94.801-47.853 147.439-79.653a2.001 2.001 0 0 1 3.034 1.728c-1.282 168.923 159.413 471.389 312.624 588.435a1.999 1.999 0 0 1-.205 3.316c-54.04 31.58-103.431 57.976-150.997 80.696a1.998 1.998 0 0 1-.862.195zM4.001 438.47c-.51 170.392 157.442 471.175 308.435 587.297 46.372-22.192 94.505-47.896 147.031-78.514-36.537-28.341-74.111-67.393-111.719-116.119-36.073-46.738-71.015-101.278-101.046-157.722-62.653-117.755-98.63-231.322-99.072-312.426-51.15 30.785-98.18 56.156-143.629 77.483z"/></g><path d="M226.067 306.557c14.561-30.24 49.613-106.355 72.885-138.64 28.06-38.929 126.979-112.089 158.989-138.474C487.497 5.08 534.373-10.202 568.21 16.361c28.832 22.634 42.772 63.382 20.063 97.918-13.642 20.747-97.746 124.73-97.746 124.73 35.601 84.056 13.201 184.281-52.964 227.622" fill="#fff"/><path d="M437.566 468.631a2 2 0 0 1-1.098-3.673c64.784-42.438 87.721-141.343 52.217-225.169a1.999 1.999 0 0 1 .287-2.038c.84-1.039 84.198-104.144 97.63-124.571 22.73-34.57 7.332-74.083-19.628-95.246C534.45-7.6 489.414 6.09 459.212 30.986c-6.83 5.63-16.749 13.424-28.234 22.448-43.198 33.942-108.48 85.236-130.404 115.653-20.177 27.991-48.952 88.466-66.145 124.598-2.479 5.21-4.688 9.854-6.56 13.739a1.999 1.999 0 1 1-3.603-1.734c1.869-3.882 4.076-8.52 6.552-13.724 17.251-36.254 46.124-96.933 66.512-125.219 22.254-30.874 87.803-82.378 131.178-116.459 11.466-9.009 21.368-16.789 28.162-22.389 16.262-13.405 35.598-22.662 54.446-26.063 22.254-4.017 42.422.463 58.331 12.951 28.396 22.292 44.557 64.002 20.499 100.59-13.01 19.786-88.19 112.922-97.11 123.959 35.561 85.313 11.889 185.693-54.175 228.968a1.985 1.985 0 0 1-1.094.327z" fill="#190e64"/></svg></g><g transform="translate(824.9999999999999 197.72727272727272) rotate(0.0 853.6363636363635 1144.090909090909) scale(1.3684796009461015 1.369928400694859)"><svg width="1247.569" height="1670.293" viewBox="0 0 1247.569 1670.293"><path d="m1205.189 1540.869-972.035 127.028c-25.402 3.32-48.685-14.582-52.005-39.983L2.396 260.076c-3.32-25.402 14.582-48.685 39.983-52.005l972.035-127.028c25.402-3.32 48.685 14.582 52.005 39.983l178.753 1367.838c3.32 25.402-14.581 48.685-39.983 52.005z" fill="#190e64"/><path d="M227.11 1670.292c-23.916 0-44.764-17.781-47.944-42.119L.413 260.335c-1.675-12.815 1.741-25.516 9.619-35.761 7.877-10.246 19.273-16.811 32.089-18.486L1014.156 79.06c26.443-3.462 50.789 15.252 54.247 41.707l178.753 1367.837c1.674 12.815-1.741 25.515-9.619 35.761s-19.273 16.811-32.089 18.486l-.259-1.983.259 1.983-972.035 127.029a48.576 48.576 0 0 1-6.303.412zM1020.457 82.649c-1.909 0-3.84.124-5.783.378L42.639 210.055c-11.756 1.536-22.209 7.558-29.436 16.957-7.227 9.398-10.359 21.049-8.823 32.805l178.753 1367.838c3.171 24.267 25.484 41.432 49.763 38.259l972.035-127.029c11.755-1.536 22.209-7.558 29.436-16.957 7.226-9.399 10.359-21.049 8.823-32.805L1064.436 121.286c-2.918-22.325-22.043-38.637-43.979-38.637z" fill="#190e64"/><path d="m59.042 258.087 952.169-124.446 177.388 1357.243L236.43 1615.33z" fill="#fff"/><path d="M236.394 1617.284a2 2 0 0 1-1.981-1.741L57.05 258.344a2.007 2.007 0 0 1 .397-1.479c.323-.42.801-.695 1.327-.764l952.14-124.429a2.003 2.003 0 0 1 2.243 1.724l177.362 1357.2a2 2 0 0 1-1.725 2.242l-952.139 124.429a1.927 1.927 0 0 1-.261.017zM61.275 259.809 238.12 1613.042l948.173-123.91-176.844-1353.234z" fill="#190e64"/><g fill="#ec535b"><path d="M775.751 71.992 606.673 94.088l-2.461-18.828c-6.023-46.086-48.265-78.563-94.351-72.541S431.298 50.984 437.32 97.07l2.461 18.828-169.078 22.096c-16.161 2.112-27.55 16.925-25.438 33.086l13.893 106.309L822.73 203.74 808.838 97.43c-2.112-16.161-16.925-27.55-33.087-25.438z"/><path d="M259.157 279.389a2.003 2.003 0 0 1-1.984-1.741l-13.893-106.31c-1.091-8.346 1.134-16.617 6.264-23.29 5.131-6.673 12.553-10.948 20.899-12.039l167.095-21.837-2.202-16.845C429.181 50.221 462.495 6.889 509.602.734c22.816-2.982 45.434 3.1 63.678 17.127S603.214 52.182 606.196 75l2.2 16.845 167.096-21.836c17.221-2.252 33.076 9.934 35.329 27.162l13.893 106.31a2 2 0 0 1-1.725 2.242l-563.573 73.649a1.878 1.878 0 0 1-.259.017zM520.935 3.996c-3.589 0-7.197.233-10.815.706-44.918 5.87-76.687 47.19-70.816 92.108l2.461 18.828a2.007 2.007 0 0 1-.397 1.479c-.323.42-.801.695-1.327.764l-169.078 22.096c-7.286.952-13.767 4.685-18.245 10.51-4.479 5.826-6.422 13.047-5.469 20.333l13.633 104.327 559.607-73.131-13.635-104.327c-1.966-15.041-15.8-25.679-30.845-23.714L606.932 96.071a1.998 1.998 0 0 1-2.243-1.724l-2.46-18.828c-2.843-21.759-13.99-41.109-31.388-54.484-14.504-11.152-31.909-17.039-49.906-17.039z"/></g></svg></g><g transform="translate(1073.181818181818 718.6363636363636) rotate(0.0 518.8636363636363 719.3181818181818) scale(1.3649654561501705 1.3637255551655638)"><svg width="760.259" height="1054.931" viewBox="0 0 760.259 1054.931"><g fill="#190e64"><path d="M249.938 45.461a1.999 1.999 0 0 1-.255-3.983L566.945.017a2.005 2.005 0 0 1 2.242 1.724 2 2 0 0 1-1.725 2.242L250.199 45.444a1.907 1.907 0 0 1-.261.017zm8.488 64.951a1.999 1.999 0 0 1-.255-3.983L709.328 47.47a2 2 0 1 1 .517 3.966l-451.158 58.958a1.908 1.908 0 0 1-.261.018zm29.432 225.215a1.999 1.999 0 0 1-.255-3.983l362.115-47.323a2 2 0 1 1 .517 3.966L288.119 335.61a1.907 1.907 0 0 1-.261.017zm8.488 64.951a1.999 1.999 0 0 1-.255-3.983l305.619-39.939a2 2 0 1 1 .517 3.966l-305.619 39.939a1.931 1.931 0 0 1-.262.017zm29.432 225.215a2.002 2.002 0 0 1-.255-3.984l292.035-38.164a1.999 1.999 0 0 1 2.242 1.724 2.002 2.002 0 0 1-1.725 2.243L326.04 625.776a1.942 1.942 0 0 1-.262.017zm8.488 64.952a1.999 1.999 0 0 1-.255-3.983L758 631.353a1.998 1.998 0 0 1 2.242 1.724 2.002 2.002 0 0 1-1.725 2.243l-423.99 55.408a2.08 2.08 0 0 1-.261.017zm29.432 225.215a2.002 2.002 0 0 1-.255-3.984l292.035-38.164a1.999 1.999 0 0 1 2.242 1.724 2.002 2.002 0 0 1-1.725 2.243L363.96 915.943a1.952 1.952 0 0 1-.262.017zm8.488 64.951a1.999 1.999 0 0 1-.255-3.983l247.403-32.331a2 2 0 1 1 .517 3.966l-247.403 32.331a2.108 2.108 0 0 1-.262.017z"/></g><path d="M2 32.798 151.64 13.24l19.558 149.64-149.64 19.557z" fill="#fff"/><path d="M21.555 184.432a2.003 2.003 0 0 1-1.984-1.741L.017 33.057a2 2 0 0 1 1.725-2.242L151.375 11.26a2.001 2.001 0 0 1 2.243 1.723l19.555 149.635a2 2 0 0 1-1.725 2.242L21.814 184.415a1.878 1.878 0 0 1-.259.017zM4.242 34.521 23.279 180.19l145.668-19.037L149.91 15.485z" fill="#190e64"/><path d="M85.589 151.388a5.004 5.004 0 0 1-3.394-1.328l-48.983-45.258a5 5 0 0 1 6.787-7.344L84.1 138.204l44.704-89.145a5 5 0 0 1 8.94 4.482l-47.685 95.087a5.002 5.002 0 0 1-4.47 2.76z" fill="#ec535b"/><path d="m39.927 322.972 149.64-19.557 19.557 149.64-149.64 19.557z" fill="#fff"/><path d="M59.475 474.599a2.003 2.003 0 0 1-1.984-1.741L37.937 323.223a2 2 0 0 1 1.725-2.242l149.634-19.555a2.003 2.003 0 0 1 2.243 1.723l19.555 149.635a2 2 0 0 1-1.725 2.242L59.734 474.581a1.88 1.88 0 0 1-.259.018zM42.162 324.688l19.036 145.668 145.668-19.037-19.036-145.668z" fill="#190e64"/><path d="M122.971 441.105a5.004 5.004 0 0 1-3.394-1.328L70.593 394.52a5 5 0 0 1 6.787-7.344l44.102 40.747 44.703-89.145a5 5 0 0 1 8.94 4.482l-47.684 95.087a5.002 5.002 0 0 1-4.47 2.758z" fill="#ec535b"/><path d="m77.854 613.148 149.64-19.558 19.557 149.64-149.64 19.557z" fill="#fff"/><path d="M97.394 764.765a2.003 2.003 0 0 1-1.984-1.741L75.857 613.39a2 2 0 0 1 1.725-2.242l149.634-19.555a2.003 2.003 0 0 1 2.243 1.723l19.555 149.634a2.007 2.007 0 0 1-.397 1.479c-.323.42-.801.695-1.327.764L97.653 764.747a1.88 1.88 0 0 1-.259.018zM80.082 614.854l19.035 145.668 145.669-19.037-19.036-145.667z" fill="#190e64"/><path d="M160.891 731.272a5.004 5.004 0 0 1-3.394-1.328l-48.984-45.258a5 5 0 0 1 6.787-7.344l44.102 40.747 44.703-89.145a5 5 0 0 1 8.94 4.482l-47.684 95.087a5.002 5.002 0 0 1-4.47 2.759z" fill="#ec535b"/><path d="m115.78 903.322 149.64-19.558 19.557 149.64-149.639 19.557z" fill="#fff"/><path d="M135.311 1054.931a1.999 1.999 0 0 1-1.98-1.741l-19.555-149.634a2.007 2.007 0 0 1 .397-1.479c.323-.42.801-.695 1.327-.764l149.635-19.555a1.999 1.999 0 0 1 2.242 1.724l19.555 149.634a2.007 2.007 0 0 1-.397 1.479c-.323.42-.801.695-1.327.764l-149.635 19.555a1.931 1.931 0 0 1-.262.017zm-17.31-149.91 19.036 145.668 145.669-19.037-19.036-145.668z" fill="#190e64"/><path d="M198.811 1021.438a5.004 5.004 0 0 1-3.394-1.328l-48.984-45.258a5 5 0 0 1 6.787-7.344l44.102 40.747 44.703-89.145a5 5 0 0 1 8.94 4.482l-47.684 95.087a5.002 5.002 0 0 1-4.47 2.759z" fill="#ec535b"/></svg></g><g transform="translate(628.6363636363636 1347.2727272727273) rotate(0.0 259.09090909090907 321.1363636363636) scale(1.3726052553443107 1.3717034945918185)"><svg width="377.517" height="468.23" viewBox="0 0 377.517 468.23"><g><path style="fill:#fff" d="M2 306.156c14.561-30.24 49.613-106.355 72.885-138.64 28.06-38.929 126.979-112.089 158.989-138.474C263.43 4.679 310.306-10.603 344.143 15.96c28.832 22.634 42.772 63.382 20.063 97.918-13.642 20.747-97.746 124.73-97.746 124.73 35.601 84.056 13.201 184.282-52.964 227.622"/><path style="fill:#190e64" d="M213.499 468.23a2 2 0 0 1-1.098-3.673c64.784-42.438 87.722-141.344 52.218-225.169a1.999 1.999 0 0 1 .287-2.038c.84-1.039 84.197-104.144 97.629-124.571 22.731-34.57 7.333-74.083-19.627-95.247-14.985-11.764-34.053-15.97-55.15-12.161-18.185 3.282-36.869 12.236-52.611 25.213-6.831 5.63-16.752 13.426-28.239 22.451C163.709 86.977 98.43 138.27 76.506 168.685c-20.178 27.995-48.955 88.474-66.149 124.608a3318.51 3318.51 0 0 1-6.555 13.729 2 2 0 0 1-3.604-1.734c1.867-3.88 4.072-8.514 6.547-13.713 17.252-36.258 46.127-96.941 66.517-125.23 22.253-30.873 87.8-82.375 131.174-116.456 11.467-9.01 21.371-16.792 28.165-22.393 16.263-13.403 35.599-22.66 54.446-26.062 22.248-4.015 42.421.462 58.331 12.951 28.396 22.292 44.557 64.002 20.498 100.59-13.008 19.786-88.188 112.922-97.109 123.959 35.562 85.313 11.889 185.692-54.175 228.968a1.985 1.985 0 0 1-1.093.328z"/></g></svg></g></svg>