<svg xmlns="http://www.w3.org/2000/svg"  viewBox="0 0 100 100" width="100px" height="100px"><path fill="#fff" d="M49.5 10.5A2 2 0 1 0 49.5 14.5A2 2 0 1 0 49.5 10.5Z"/><path fill="#eaa871" d="M62.5,16H72c3.866,0,7,3.134,7,7v54c0,3.866-3.134,7-7,7H28c-3.866,0-7-3.134-7-7V23 c0-3.866,3.134-7,7-7h8"/><path fill="#8f9eb6" d="M45,19h9h8.793C62.928,18.523,63,18.02,63,17.5c0-3.038-2.462-5.5-5.5-5.5 c-0.526,0-1.033,0.078-1.514,0.216C55.836,8.759,52.994,6,49.5,6s-6.336,2.759-6.486,6.216C42.533,12.078,42.026,12,41.5,12 c-3.038,0-5.5,2.462-5.5,5.5c0,0.52,0.072,1.023,0.207,1.5H45z"/><path fill="#fff" d="M49.5 10.5A2 2 0 1 0 49.5 14.5A2 2 0 1 0 49.5 10.5Z"/><path fill="#fefdef" d="M73,71v3c0,0-1.843,3.5-3.5,3.5h-39c-1.657,0-3-1.343-3-3v-48c0-1.657,1.343-3,3-3h39 c1.657,0,3.5,3.5,3.5,3.5v28"/><path fill="#1f212b" d="M72,85H28c-4.411,0-8-3.589-8-8V23c0-4.411,3.589-8,8-8h8v2h-8c-3.309,0-6,2.691-6,6v54 c0,3.309,2.691,6,6,6h44c3.309,0,6-2.691,6-6V23c0-3.309-2.691-6-6-6h-9.5v-2H72c4.411,0,8,3.589,8,8v54C80,81.411,76.411,85,72,85z"/><path fill="#1f212b" d="M69.5,78h-39c-1.93,0-3.5-1.57-3.5-3.5v-48c0-1.93,1.57-3.5,3.5-3.5h39c1.93,0,3.5,1.57,3.5,3.5v29 c0,0.276-0.224,0.5-0.5,0.5S72,55.776,72,55.5v-29c0-1.379-1.122-2.5-2.5-2.5h-39c-1.378,0-2.5,1.121-2.5,2.5v48 c0,1.379,1.122,2.5,2.5,2.5h39c1.378,0,2.5-1.121,2.5-2.5v-4c0-0.276,0.224-0.5,0.5-0.5s0.5,0.224,0.5,0.5v4 C73,76.43,71.43,78,69.5,78z"/><path fill="#1f212b" d="M72.5 63c-.276 0-.5-.224-.5-.5v-4c0-.276.224-.5.5-.5s.5.224.5.5v4C73 62.776 72.776 63 72.5 63zM72.5 68c-.276 0-.5-.224-.5-.5v-2c0-.276.224-.5.5-.5s.5.224.5.5v2C73 67.776 72.776 68 72.5 68zM62.793 20H36.207c-.447 0-.84-.297-.962-.728C35.083 18.698 35 18.102 35 17.5c0-3.584 2.916-6.5 6.5-6.5.216 0 .434.012.65.033C42.832 7.571 45.866 5 49.5 5s6.668 2.571 7.35 6.033C57.066 11.012 57.284 11 57.5 11c3.584 0 6.5 2.916 6.5 6.5 0 .602-.083 1.198-.245 1.772C63.633 19.703 63.24 20 62.793 20zM37.027 18h24.945C61.991 17.835 62 17.668 62 17.5c0-2.481-2.019-4.5-4.5-4.5-.411 0-.828.06-1.239.178-.294.082-.611.028-.859-.15-.249-.18-.401-.462-.415-.769C54.859 9.311 52.449 7 49.5 7s-5.359 2.311-5.487 5.259c-.013.307-.166.589-.415.769s-.565.232-.859.15C42.328 13.06 41.911 13 41.5 13c-2.481 0-4.5 2.019-4.5 4.5C37 17.668 37.009 17.835 37.027 18z"/><path fill="#1f212b" d="M49.5 15c-1.378 0-2.5-1.121-2.5-2.5s1.122-2.5 2.5-2.5 2.5 1.121 2.5 2.5S50.878 15 49.5 15zM49.5 11c-.827 0-1.5.673-1.5 1.5s.673 1.5 1.5 1.5 1.5-.673 1.5-1.5S50.327 11 49.5 11zM44.5 40h-11c-.276 0-.5-.224-.5-.5s.224-.5.5-.5h11c.276 0 .5.224.5.5S44.776 40 44.5 40zM52.5 40h-5c-.276 0-.5-.224-.5-.5s.224-.5.5-.5h5c.276 0 .5.224.5.5S52.776 40 52.5 40zM52.5 64h-7c-.276 0-.5-.224-.5-.5s.224-.5.5-.5h7c.276 0 .5.224.5.5S52.776 64 52.5 64zM52.5 52h-19c-.276 0-.5-.224-.5-.5s.224-.5.5-.5h19c.276 0 .5.224.5.5S52.776 52 52.5 52zM42.5 64h-9c-.276 0-.5-.224-.5-.5s.224-.5.5-.5h9c.276 0 .5.224.5.5S42.776 64 42.5 64zM61.5 42c-.128 0-.256-.049-.354-.146l-3-3c-.195-.195-.195-.512 0-.707s.512-.195.707 0l2.646 2.646 4.646-4.646c.195-.195.512-.195.707 0s.195.512 0 .707l-5 5C61.756 41.951 61.628 42 61.5 42zM61.5 54c-.128 0-.256-.049-.354-.146l-3-3c-.195-.195-.195-.512 0-.707s.512-.195.707 0l2.646 2.646 4.646-4.646c.195-.195.512-.195.707 0s.195.512 0 .707l-5 5C61.756 53.951 61.628 54 61.5 54zM61.5 66c-.128 0-.256-.049-.354-.146l-3-3c-.195-.195-.195-.512 0-.707s.512-.195.707 0l2.646 2.646 4.646-4.646c.195-.195.512-.195.707 0s.195.512 0 .707l-5 5C61.756 65.951 61.628 66 61.5 66z"/></svg>