<svg xmlns="http://www.w3.org/2000/svg" viewBox="0 0 3000 3000" width="3000" height="3000"><g transform="translate(2390.0 1023.3333333333334) rotate(4.178984269882386 -1060.8333333333333 900.0) scale(-2.3350634447560306 2.3367124792129954)"><svg width="908.612" height="770.313" viewBox="0 0 908.612 770.313"><path d="M334.482 768.313c62.02-89.862 142.288-173.311 229.238-248.659 196.502-179.584-48.608-470.603-259.094-306.75-102.596 88.681-190.865 179.09-263.699 275.02 65.088 145.445 159.622 243.412 293.555 280.389z" fill="#fff"/><path d="M334.482 770.313c-.177 0-.356-.023-.532-.072-65.604-18.112-123.964-51.762-173.458-100.015-47.289-46.103-88.13-107.163-121.39-181.484a2 2 0 0 1 .233-2.026c70.068-92.288 156.418-182.347 263.983-275.325l.08-.065c49.3-38.377 104.073-54.579 158.397-46.856 48.359 6.876 93.281 32.335 126.492 71.688 33.215 39.358 50.776 87.937 49.449 136.789-1.49 54.859-26.618 106.1-72.667 148.184-95.042 82.361-172.055 165.896-228.941 248.318-.38.549-1 .864-1.646.864zM43.237 488.189c32.964 73.37 73.35 133.647 120.046 179.173 48.661 47.441 105.971 80.624 170.362 98.643 56.998-82.321 133.955-165.703 228.764-247.862 45.189-41.299 69.867-91.557 71.327-145.305 1.3-47.869-15.927-95.493-48.508-134.1-32.576-38.601-76.612-63.569-123.998-70.307-53.208-7.566-106.924 8.349-155.336 46.02-106.966 92.463-192.895 182.016-262.657 273.738z" fill="#190e64"/><path d="M545.688 535.484s125.688-97.195 148.186-108.478c17.782-8.918 136.24-40.181 167.536-46.948 68.48-14.807 54.022-108.141-9.012-98.524-35.735 5.452-164.364 24.979-191.493 37.022-35.69 15.843-103.777 64.386-103.777 64.386" fill="#fff"/><path d="M545.69 537.484a2 2 0 0 1-1.225-3.582c5.139-3.974 126.1-97.443 148.513-108.683 17.716-8.886 136.311-40.261 168.01-47.115 35.482-7.672 47.054-36.079 42.79-59.225-3.849-20.896-21.136-39.933-51.078-35.368l-1.277.195c-108.249 16.511-172.075 28.852-189.706 36.679-35.096 15.579-102.748 63.702-103.427 64.186a2 2 0 0 1-2.323-3.257c.683-.487 68.662-48.842 104.126-64.585 17.956-7.971 82.126-20.412 190.726-36.977l1.276-.195c14.597-2.227 27.713.772 37.937 8.672 9.147 7.067 15.425 17.695 17.678 29.925 2.485 13.492-.121 27.19-7.338 38.572-8.151 12.854-21.479 21.598-38.541 25.287-31.579 6.828-149.558 38.002-167.062 46.781-22.068 11.068-146.604 107.301-147.859 108.272a1.988 1.988 0 0 1-1.22.418z" fill="#190e64"/><path d="M558.168 404.597s98.518-72.93 118.051-76.701 136.714-18.611 168.619-21.313c69.812-5.913 57.33-99.369-6.417-97.906-36.139.829-179.535 8.18-208.262 15.648s-111.174 67.819-111.174 67.819" fill="#fff"/><path d="M558.169 406.597a2 2 0 0 1-1.192-3.607c4.038-2.989 99.11-73.244 118.862-77.057 20.048-3.87 136.809-18.629 168.829-21.341 15.113-1.28 27.322-6.946 35.306-16.385 7.022-8.302 10.544-19.287 9.918-30.932-1.275-23.713-19.369-47.335-51.426-46.597-34.724.797-178.791 8.041-207.805 15.584-28.031 7.287-109.674 66.896-110.496 67.497a2 2 0 1 1-2.362-3.228c3.379-2.474 83.085-60.662 111.852-68.14 29.301-7.618 173.897-14.913 208.72-15.712 15.883-.355 29.717 4.919 40.035 15.278 9.129 9.167 14.771 21.961 15.477 35.103.681 12.667-3.175 24.646-10.858 33.729-8.683 10.265-21.831 16.416-38.022 17.787-31.956 2.707-148.425 17.426-168.409 21.284-15.098 2.915-83.291 51.213-117.24 76.344a1.985 1.985 0 0 1-1.189.393z" fill="#190e64"/><path d="M508.972 320.478s94.474-75.38 114.322-76.72c19.848-1.339 141.003-12.726 173.004-13.799 70.023-2.347 62.321-96.317-1.418-98.106-36.134-1.014-175.127-.423-204.555 3.455s-123.542 75.259-123.542 75.259" fill="#fff"/><path d="M508.974 322.478a1.999 1.999 0 0 1-1.249-3.563c3.877-3.094 95.195-75.786 115.435-77.152 6.396-.431 23.227-1.899 44.534-3.757 45.083-3.932 106.827-9.317 128.538-10.044 15.159-.508 27.64-5.544 36.095-14.563 7.436-7.933 11.513-18.724 11.481-30.386-.064-23.748-16.911-48.258-48.983-49.159-38.885-1.088-175.401-.36-204.237 3.438-28.572 3.765-121.658 74.159-122.595 74.87a2.002 2.002 0 0 1-2.802-.385 1.999 1.999 0 0 1 .385-2.802c.236-.179 23.885-18.089 50.827-36.24 36.365-24.5 61.149-37.759 73.663-39.408 30.413-4.007 170.913-4.424 204.872-3.471 15.871.445 29.428 6.427 39.204 17.299 8.65 9.62 13.632 22.686 13.667 35.846.064 23.509-15.817 47.765-51.442 48.958-21.603.724-83.286 6.103-128.324 10.031-21.33 1.86-38.177 3.33-44.612 3.764-4.417.298-18.548 5.693-63.551 38.476-25.767 18.77-49.422 37.624-49.658 37.812a2.002 2.002 0 0 1-1.248.436z" fill="#190e64"/><path d="M465.555 234.539s98.357-62.856 116.449-71.129c18.797-8.595 169.037-31.749 200.694-36.552 69.27-10.51 50.643-102.938-12.868-97.268-36.005 3.214-209.128 36.79-238.393 44.737-28.645 7.778-226.812 138.577-226.812 138.577" fill="#fff"/><path d="M465.557 236.539a2 2 0 0 1-1.079-3.685c4.021-2.57 98.683-63.027 116.695-71.263 19.25-8.802 171.001-32.125 201.226-36.711 14.996-2.275 26.803-8.734 34.146-18.68 6.458-8.748 9.248-19.941 7.854-31.519-2.838-23.578-22.436-45.952-54.391-43.1-35.826 3.198-208.554 36.667-238.046 44.675-28.011 7.606-224.255 137.01-226.234 138.316a2 2 0 0 1-2.204-3.338c8.102-5.348 198.764-131.065 227.39-138.838 29.57-8.03 202.797-41.59 238.739-44.799 15.808-1.411 29.977 2.946 40.956 12.602 9.715 8.544 16.188 20.938 17.762 34.005 2.81 23.34-10.13 49.285-45.372 54.632-18.469 2.802-181 27.631-200.163 36.394-17.759 8.12-115.221 70.368-116.204 70.995a2.002 2.002 0 0 1-1.075.314z" fill="#190e64"/><path d="M413.309 667.77C284.766 645.714 121.68 527.737 85.391 432.285 55.618 465.219 30.08 498.204 2 531.821c36.288 95.451 203.94 214.436 332.482 236.492 23.681-33.701 47.246-64.622 78.827-100.543z" fill="#fff"/><path d="M334.482 770.313c-.112 0-.226-.01-.339-.028-61.604-10.571-135.105-43.763-201.656-91.064C65.792 631.815 17.549 578.349.13 532.532a2.001 2.001 0 0 1 .334-1.993c9.021-10.799 17.91-21.694 26.506-32.229 18.043-22.115 36.701-44.982 56.936-67.365a2 2 0 0 1 3.353.63c17.208 45.265 64.104 97.879 128.663 144.353 64.845 46.68 136.912 79.437 197.724 89.871a2 2 0 0 1 1.163 3.292c-28.495 32.41-52.029 62.429-78.693 100.372-.377.538-.99.85-1.634.85zM4.289 532.2c36.692 94.07 201.962 211.502 329.286 233.926 25.721-36.541 48.598-65.789 75.892-97.008-60.639-11.168-131.8-43.813-195.881-89.943-63.75-45.893-110.5-97.87-128.874-143.147-19.339 21.542-37.275 43.525-54.642 64.811-8.363 10.249-17.004 20.84-25.781 31.361z" fill="#190e64"/><path d="M291.776 501.148c59.544-37.578 75.708-154.836 31.447-229.139 0 0-.621-142.325-5.394-223.652-3.76-64.068-85.371-59.508-91.311-.007-2.133 21.362-11.882 146.337-21.58 188.329-8.296 35.924-11.022 76.727-28.134 95.435" fill="#fff"/><path d="M291.778 503.148a2 2 0 0 1-1.069-3.692c58.516-36.93 74.346-153.315 30.796-226.424a2.002 2.002 0 0 1-.282-1.015c-.006-1.423-.675-143.201-5.391-223.543-1.891-32.243-23.142-44.104-40.766-44.465-27.617-.59-44.306 21.979-46.558 44.54-.363 3.635-.961 10.436-1.718 19.046-3.84 43.681-11.83 134.574-19.903 169.534-2.143 9.279-3.933 18.998-5.664 28.396-5.083 27.597-9.885 53.663-22.943 67.938a2 2 0 1 1-2.951-2.701c12.284-13.429 16.984-38.947 21.96-65.963 1.739-9.442 3.538-19.205 5.701-28.572 8.01-34.688 15.984-125.393 19.816-168.984.758-8.624 1.356-15.435 1.722-19.093 1.483-14.853 7.627-27.361 17.768-36.173C251.462 4.012 263.147-.245 275.149.008c11.385.232 21.991 4.595 29.863 12.282 8.817 8.61 13.94 21.041 14.815 35.948 4.573 77.922 5.345 213.477 5.395 223.216 21.113 35.73 29.564 82.773 23.188 129.167-6.423 46.728-26.675 83.984-55.564 102.217-.334.21-.703.31-1.068.31z" fill="#190e64"/></svg></g><g transform="translate(553.3333333333334 448.33333333333337) rotate(9.98900205745959 570.8333333333333 960.8333333333333) scale(1.2202077808998468 1.2182664311703768)"><svg width="935.633" height="1577.378" viewBox="0 0 935.633 1577.378"><rect fill="#fff" height="1493.378" rx="71.808" width="851.633" x="42" y="42"/><g fill="#190e64"><path d="M821.825 1537.378H113.808c-40.697 0-73.808-33.11-73.808-73.808V113.808c0-40.698 33.11-73.809 73.808-73.809h708.018c40.697 0 73.808 33.11 73.808 73.809V1463.57c0 40.697-33.11 73.808-73.808 73.808zM113.808 44C75.316 44 44 75.316 44 113.809v1349.762c0 38.492 31.315 69.808 69.808 69.808h708.018c38.492 0 69.808-31.315 69.808-69.808V113.808c0-38.493-31.315-69.809-69.808-69.809H113.808z"/><path d="M821.825 2H113.808C52.157 2 2 52.157 2 113.808V1463.57c0 61.651 50.157 111.808 111.808 111.808h708.017c61.651 0 111.808-50.157 111.808-111.808V113.808C933.633 52.157 883.476 2 821.825 2zm71.808 1461.57c0 39.659-32.15 71.808-71.808 71.808H113.808c-39.659 0-71.808-32.149-71.808-71.808V113.808C42 74.149 74.149 42 113.808 42h708.017c39.658 0 71.808 32.149 71.808 71.808z"/><path d="M821.825 1577.378H113.808C51.054 1577.378 0 1526.324 0 1463.57V113.808C0 51.054 51.054 0 113.808 0h708.018c62.753 0 113.807 51.054 113.807 113.808V1463.57c0 62.754-51.054 113.808-113.808 113.808zM113.808 4C53.26 4 4 53.26 4 113.808V1463.57c0 60.548 49.26 109.808 109.808 109.808h708.018c60.548 0 109.808-49.26 109.808-109.808V113.808C931.634 53.26 882.374 4 821.826 4zm708.018 1533.377H113.808c-40.697 0-73.808-33.11-73.808-73.808V113.808C40 73.11 73.11 40 113.808 40h708.018c40.697 0 73.808 33.11 73.808 73.808V1463.57c0 40.697-33.11 73.808-73.808 73.808zM113.808 44C75.316 44 44 75.316 44 113.808V1463.57c0 38.492 31.315 69.808 69.808 69.808h708.018c38.492 0 69.808-31.315 69.808-69.808V113.808c0-38.492-31.315-69.808-69.808-69.808z"/><rect height="54.013" rx="27.006" width="210.05" x="362.792" y="75.454"/><path d="M545.835 131.467H389.798c-15.994 0-29.007-13.012-29.007-29.006s13.013-29.006 29.007-29.006h156.037c15.994 0 29.007 13.012 29.007 29.006s-13.013 29.006-29.007 29.006zM389.798 77.454c-13.789 0-25.007 11.218-25.007 25.006s11.218 25.006 25.007 25.006h156.037c13.789 0 25.007-11.218 25.007-25.006s-11.218-25.006-25.007-25.006z"/></g></svg></g><g transform="translate(641.6666666666667 745.0) rotate(0.0 443.33333333333337 748.3333333333335) scale(2.3294162360311654 2.333429996580408)"><svg width="380.639" height="641.402" viewBox="0 0 380.639 641.402"><rect fill="#fff" height="57.66" rx="28.83" transform="matrix(.98469237 .17430129 -.17430129 .98469237 77.67 -25.069)" width="363.788" x="-.338" y="400.813"/><g fill="#190e64"><path d="M332.342 487.162c-1.806 0-3.624-.159-5.439-.48L25.461 433.32c-8.109-1.436-15.173-5.943-19.892-12.692s-6.527-14.931-5.092-23.04 5.943-15.174 12.692-19.892c6.749-4.719 14.931-6.529 23.04-5.092l301.442 53.361c8.109 1.436 15.174 5.943 19.892 12.692 4.719 6.749 6.527 14.931 5.092 23.04-1.436 8.109-5.943 15.174-12.692 19.892-5.238 3.662-11.34 5.572-17.601 5.572zm-4.742-4.419c7.057 1.25 14.178-.324 20.051-4.431s9.796-10.255 11.045-17.312-.324-14.178-4.431-20.051-10.255-9.796-17.312-11.045L35.511 376.543c-7.057-1.25-14.178.324-20.051 4.431-5.873 4.106-9.796 10.254-11.045 17.311-2.579 14.568 7.175 28.517 21.743 31.096L327.6 482.742z"/><circle cx="60.7" cy="408.249" r="11.393"/><circle cx="100.985" cy="415.38" r="11.393"/><circle cx="141.27" cy="422.512" r="11.393"/><circle cx="181.556" cy="429.643" r="11.393"/><circle cx="221.841" cy="436.774" r="11.393"/><circle cx="262.126" cy="443.906" r="11.393"/><circle cx="302.412" cy="451.037" r="11.393"/></g><rect fill="#fff" height="57.66" rx="28.83" transform="matrix(.98469237 .17430129 -.17430129 .98469237 60.68 -29.64)" width="363.788" x="17.189" y="301.799"/><path d="M349.819 388.142c-1.778 0-3.578-.155-5.389-.475L42.988 334.306c-8.109-1.436-15.173-5.943-19.892-12.692s-6.527-14.931-5.092-23.04 5.943-15.174 12.692-19.892c6.749-4.719 14.931-6.529 23.04-5.092l301.442 53.361c8.109 1.436 15.173 5.943 19.892 12.692s6.527 14.931 5.092 23.04c-2.643 14.929-15.68 25.459-30.344 25.459zm-4.691-4.414c7.057 1.25 14.178-.324 20.051-4.431s9.796-10.255 11.045-17.312c1.25-7.057-.324-14.178-4.431-20.051-4.106-5.873-10.254-9.796-17.311-11.045L53.04 277.528c-14.567-2.579-28.517 7.175-31.096 21.742-2.579 14.568 7.175 28.517 21.742 31.096l301.442 53.361z" fill="#190e64"/><path d="m52.585 296.375 103.271 18.28L153 330.79 49.73 312.51z" fill="#190e64"/><path d="M152.999 332.792c-.116 0-.233-.01-.351-.031L49.377 314.48a2 2 0 0 1-1.621-2.318l2.856-16.136a1.998 1.998 0 0 1 2.318-1.621l103.271 18.281a1.998 1.998 0 0 1 1.621 2.318l-2.856 16.136a2 2 0 0 1-1.967 1.652zM52.044 310.89l99.332 17.583 2.159-12.197-99.332-17.584-2.159 12.197zm128.136 8.07 168.263 29.785-2.857 16.136-168.263-29.784z" fill="#190e64"/><path d="M345.584 366.883a1.96 1.96 0 0 1-.349-.031l-168.263-29.786a1.998 1.998 0 0 1-1.621-2.318l2.856-16.136a2.003 2.003 0 0 1 2.318-1.621l168.263 29.786a2 2 0 0 1 1.621 2.318l-2.856 16.136a2.004 2.004 0 0 1-1.969 1.652zm-165.945-33.407 164.324 29.089 2.159-12.197-164.324-29.089z" fill="#190e64"/><ellipse cx="241.197" cy="92.725" fill="#ec535b" rx="43.432" ry="36.091" transform="matrix(.17430129 -.98469237 .98469237 .17430129 107.849 314.066)"/><path d="M238.894 137.955c-1.863 0-3.737-.161-5.616-.494-10.088-1.786-18.719-8.162-24.301-17.954-5.513-9.671-7.391-21.54-5.288-33.423 4.367-24.668 24.744-41.755 45.427-38.097 10.088 1.786 18.719 8.162 24.301 17.954 5.513 9.671 7.391 21.54 5.288 33.423l-1.969-.349 1.969.349c-3.97 22.426-21.177 38.591-39.811 38.591zm4.589-86.462c-16.724 0-32.228 14.798-35.855 35.29-1.941 10.965-.228 21.883 4.824 30.744 4.983 8.74 12.626 14.421 21.523 15.996a28.3 28.3 0 0 0 4.936.434c16.724.001 32.228-14.798 35.855-35.29 1.941-10.965.228-21.883-4.824-30.744-4.983-8.74-12.626-14.421-21.523-15.996a28.3 28.3 0 0 0-4.936-.434zm-14.499 110.224c-38.103-6.745-73.272-.268-92.59 14.836 16.591 28.446 45.105 49.69 80.072 55.879 34.966 6.19 69.04-3.975 94.388-24.997-12.959-20.818-43.767-38.974-81.87-45.719z" fill="#ec535b"/><path d="M236.755 236.217c-6.862 0-13.765-.599-20.638-1.815-34.228-6.059-63.915-26.777-81.45-56.841a2 2 0 0 1 .496-2.583c20.52-16.044 56.604-21.88 94.17-15.23s69.454 24.518 83.219 46.632a2 2 0 0 1-.421 2.596c-21.411 17.756-48.064 27.241-75.376 27.242zm-97.728-59.148c17.047 28.223 45.301 47.643 77.788 53.394 32.486 5.752 65.69-2.79 91.39-23.446-13.675-20.5-43.937-37.023-79.569-43.331-35.632-6.309-69.727-1.177-89.609 13.383z" fill="#ec535b"/><path d="M236.953 236.241c-6.917 0-13.882-.608-20.836-1.839-64.121-11.351-107.053-72.751-95.702-136.873 11.351-64.12 72.75-107.05 136.872-95.702C321.408 13.178 364.34 74.578 352.989 138.7c-5.499 31.062-22.764 58.123-48.616 76.198-20.064 14.029-43.44 21.343-67.421 21.343zm-.306-232.233c-54.27 0-102.513 38.966-112.294 94.219-10.966 61.949 30.511 121.27 92.461 132.236 30.009 5.313 60.291-1.379 85.268-18.843 24.976-17.464 41.657-43.608 46.969-73.618l1.969.349-1.969-.349C360.017 76.053 318.54 16.732 256.59 5.766a114.31 114.31 0 0 0-19.943-1.758z" fill="#190e64"/><rect fill="#fff" height="83.14" rx="22.053" transform="matrix(.98469237 .17430129 -.17430129 .98469237 106.269 -35.185)" width="167.222" x="169.83" y="545.827"/><path d="M310.666 641.401c-1.387 0-2.792-.121-4.204-.371l-121.231-21.46c-13.06-2.312-21.804-14.818-19.492-27.878l6.804-38.436c2.312-13.06 14.818-21.805 27.878-19.492l121.231 21.46c13.06 2.312 21.804 14.818 19.492 27.878l-6.804 38.436c-2.062 11.647-12.233 19.862-23.673 19.863zM196.218 537.394c-9.538 0-18.017 6.848-19.736 16.56l-6.804 38.436a19.916 19.916 0 0 0 3.312 14.986 19.919 19.919 0 0 0 12.939 8.255l121.231 21.46c10.89 1.929 21.314-5.362 23.241-16.25l6.804-38.436c1.927-10.888-5.363-21.314-16.25-23.241l-121.231-21.46a20.133 20.133 0 0 0-3.505-.309z" fill="#190e64"/><path d="m286.794 593.302-30.466-32.064-2.517 14.218-31.662-5.604-4.122 23.283 31.663 5.605-2.517 14.217z" fill="#190e64"/><path d="M247.173 614.957a2 2 0 0 1-1.97-2.348l2.168-12.248-29.693-5.256a1.998 1.998 0 0 1-1.621-2.318l4.122-23.283a1.998 1.998 0 0 1 2.318-1.621l29.693 5.256 2.168-12.249a2 2 0 0 1 3.419-1.029l30.466 32.063a2.001 2.001 0 0 1-.561 3.169l-39.622 19.656c-.281.14-.586.208-.889.208zm-26.828-23.443 29.693 5.256a1.998 1.998 0 0 1 1.621 2.318l-1.826 10.317 33.645-16.691-25.871-27.227-1.826 10.317a2.003 2.003 0 0 1-2.318 1.621l-29.693-5.256-3.424 19.344z" fill="#190e64"/></svg></g><g transform="translate(1941.6666666666667 216.66666666666669) rotate(2.042857334608022 447.5000000000001 387.5) scale(2.515345009780337 2.5124650686308203)"><svg width="355.816" height="308.462" viewBox="0 0 355.816 308.462"><path d="M177.908 2C80.757 2 2 69.023 2 151.7c0 38.161 16.788 72.98 44.41 99.419l-8.856 55.342 66.725-18.777c22.4 8.798 47.339 13.715 73.63 13.715 97.151 0 175.908-67.023 175.908-149.7S275.06 2 177.908 2z" fill="#fff"/><path d="M37.554 308.462a2.003 2.003 0 0 1-1.975-2.317l8.69-54.31C15.713 224.146 0 188.625 0 151.7 0 68.053 79.809 0 177.908 0s177.908 68.053 177.908 151.7-79.809 151.7-177.908 151.7c-25.707 0-50.509-4.578-73.733-13.609l-66.079 18.596a1.974 1.974 0 0 1-.542.075zM177.908 4C82.015 4 4 70.258 4 151.7c0 36.148 15.553 70.943 43.792 97.976.475.454.696 1.112.592 1.761l-8.361 52.253 63.713-17.93a1.99 1.99 0 0 1 1.273.063c22.937 9.009 47.463 13.577 72.898 13.577 95.893 0 173.908-66.258 173.908-147.7S273.801 4 177.908 4z" fill="#190e64"/><g fill="#ec535b"><path d="m168.56 227.802-79.588-57.866 23.523-32.352 50.514 36.728 77.242-85.387 29.664 26.834z"/><path d="M168.558 229.803c-.41 0-.822-.125-1.175-.383l-79.588-57.866a2 2 0 0 1-.441-2.793l23.523-32.352a1.997 1.997 0 0 1 2.794-.441l49.06 35.67 76.036-84.054a2.002 2.002 0 0 1 2.825-.142l29.664 26.834a2.005 2.005 0 0 1 .142 2.825L170.043 229.144a1.997 1.997 0 0 1-1.484.658zm-76.793-60.308 76.517 55.633 98.808-109.227-26.698-24.15-75.9 83.903a1.998 1.998 0 0 1-2.66.275l-48.896-35.551-21.171 29.116z"/></g></svg></g><g transform="translate(2030.0 1068.3333333333335) rotate(13.904222839853302 -221.66666666666663 585.0) scale(-2.3445997521423116 2.3395367717191995)"><svg width="189.087" height="500.099" viewBox="0 0 189.087 500.099"><path d="M88.372 498.099c64.8-27.541 99.562-140.689 67.792-221.129 0 0 22.214-140.582 30.547-221.621 6.565-63.841-74.721-72.43-90.128-14.652-5.531 20.743-35.2 142.536-51.506 182.429C31.127 257.254 21.892 297.092 2 312.813" style="fill:#fff"/><path d="M88.373 500.099a2 2 0 0 1-.784-3.841c63.681-27.066 97.973-139.406 66.714-218.554a2 2 0 0 1-.115-1.047c.222-1.405 22.301-141.455 30.533-221.513 3.304-32.13-15.77-47.246-33.107-50.428-20.547-3.773-45.381 7.554-53.099 36.496-.942 3.532-2.625 10.157-4.756 18.544-10.795 42.495-33.259 130.92-46.832 164.127-3.603 8.815-6.929 18.12-10.145 27.119-9.444 26.425-18.364 51.384-33.543 63.38a2 2 0 0 1-2.48-3.138c14.279-11.285 23.012-35.719 32.257-61.588 3.231-9.04 6.572-18.388 10.209-27.286C56.693 189.422 79.11 101.179 89.883 58.772c2.134-8.4 3.819-15.034 4.767-18.59C102.993 8.894 129.986-3.323 152.336.781c20.516 3.766 39.717 22.162 36.364 54.772-7.984 77.646-28.964 211.57-30.476 221.191 15.108 38.654 15.905 86.443 2.169 131.214-13.834 45.093-39.8 78.619-71.24 91.981-.255.109-.521.16-.781.16Z" style="fill:#190e64"/></svg></g></svg>