<svg xmlns="http://www.w3.org/2000/svg"  viewBox="0 0 48 48" width="100px" height="100px"><path fill="#2196f3" d="M40,6H30c-2.209,0-4,1.791-4,4v11.831L29.831,18H40c2.209,0,4-1.791,4-4v-4C44,7.791,42.209,6,40,6z"/><path fill="#ffa726" d="M24,23.5c0,0.828-0.672,1.5-1.5,1.5c-0.829,0-1.5-0.672-1.5-1.5s0.671-1.5,1.5-1.5	C23.328,22,24,22.672,24,23.5 M11,23.5c0,0.828-0.672,1.5-1.5,1.5S8,24.328,8,23.5S8.672,22,9.5,22S11,22.672,11,23.5"/><path fill="#ff9800" d="M20,32c0,0,0,4-4,4s-4-4-4-4"/><path fill="#4fc3f7" d="M19.75,32L19.75,32L16,32.77L12.25,32c0,0-8.25,1.527-8.25,10h24C28,33.559,19.75,32,19.75,32"/><path fill="#ff9800" d="M16,36c-4,0-4-4-4-4v-4h8v4C20,32,20,36,16,36z"/><path fill="#ffb74d" d="M23,19.68c0-5.879-14-3.828-14,0v4.391C9,27.895,12.133,31,16,31c3.866,0,7-3.105,7-6.93V19.68z"/><path fill="#01579b" d="M16,38c3.059,0,5.578-2.292,5.948-5.25c-0.884-0.398-1.603-0.607-1.954-0.693	C19.963,34.238,18.19,36,16,36s-3.964-1.762-3.994-3.945c-0.353,0.086-1.071,0.293-1.955,0.688C10.417,35.705,12.939,38,16,38z"/><path fill="#424242" d="M16,12c-4.86,0-8,4.313-8,8.172V22l2,2v-4l9.2-3l2.8,3v4l2-2v-0.809c0-3.218-0.831-6.803-4.8-7.592	L18.399,12H16z"/><path fill="#784719" d="M18,23c0-0.551,0.448-1,1-1s1,0.449,1,1s-0.448,1-1,1S18,23.551,18,23 M12,23c0,0.551,0.448,1,1,1	s1-0.449,1-1s-0.448-1-1-1S12,22.449,12,23"/><path fill="#ffca28" d="M35,10l0.651,1.317l1.455,0.211l-1.053,1.025L36.301,14L35,13.317L33.699,14l0.248-1.447	l-1.053-1.025l1.455-0.211L35,10z"/><path fill="#ffca28" d="M40,10l0.651,1.317l1.455,0.211l-1.053,1.025L41.301,14L40,13.317L38.699,14l0.248-1.447	l-1.053-1.025l1.455-0.211L40,10z"/><path fill="#ffca28" d="M30,10l0.651,1.317l1.455,0.211l-1.053,1.025L31.301,14L30,13.317L28.699,14l0.248-1.447	l-1.053-1.025l1.455-0.211L30,10z"/></svg>