<svg xmlns="http://www.w3.org/2000/svg" viewBox="0 0 3000 3000" width="3000" height="3000"><g transform="translate(361.6666666666667 1180.0) rotate(-4.458918725463992 977.5000000000001 829.1666666666667) scale(2.151633480517537 2.152804552608269)"><svg width="908.612" height="770.313" viewBox="0 0 908.612 770.313"><path d="M334.482 768.313c62.02-89.862 142.288-173.311 229.238-248.659 196.502-179.584-48.608-470.603-259.094-306.75-102.596 88.681-190.865 179.09-263.699 275.02 65.088 145.445 159.622 243.412 293.555 280.389z" fill="#fff"/><path d="M334.482 770.313c-.177 0-.356-.023-.532-.072-65.604-18.112-123.964-51.762-173.458-100.015-47.289-46.103-88.13-107.163-121.39-181.484a2 2 0 0 1 .233-2.026c70.068-92.288 156.418-182.347 263.983-275.325l.08-.065c49.3-38.377 104.073-54.579 158.397-46.856 48.359 6.876 93.281 32.335 126.492 71.688 33.215 39.358 50.776 87.937 49.449 136.789-1.49 54.859-26.618 106.1-72.667 148.184-95.042 82.361-172.055 165.896-228.941 248.318-.38.549-1 .864-1.646.864zM43.237 488.189c32.964 73.37 73.35 133.647 120.046 179.173 48.661 47.441 105.971 80.624 170.362 98.643 56.998-82.321 133.955-165.703 228.764-247.862 45.189-41.299 69.867-91.557 71.327-145.305 1.3-47.869-15.927-95.493-48.508-134.1-32.576-38.601-76.612-63.569-123.998-70.307-53.208-7.566-106.924 8.349-155.336 46.02-106.966 92.463-192.895 182.016-262.657 273.738z" fill="#190e64"/><path d="M545.688 535.484s125.688-97.195 148.186-108.478c17.782-8.918 136.24-40.181 167.536-46.948 68.48-14.807 54.022-108.141-9.012-98.524-35.735 5.452-164.364 24.979-191.493 37.022-35.69 15.843-103.777 64.386-103.777 64.386" fill="#fff"/><path d="M545.69 537.484a2 2 0 0 1-1.225-3.582c5.139-3.974 126.1-97.443 148.513-108.683 17.716-8.886 136.311-40.261 168.01-47.115 35.482-7.672 47.054-36.079 42.79-59.225-3.849-20.896-21.136-39.933-51.078-35.368l-1.277.195c-108.249 16.511-172.075 28.852-189.706 36.679-35.096 15.579-102.748 63.702-103.427 64.186a2 2 0 0 1-2.323-3.257c.683-.487 68.662-48.842 104.126-64.585 17.956-7.971 82.126-20.412 190.726-36.977l1.276-.195c14.597-2.227 27.713.772 37.937 8.672 9.147 7.067 15.425 17.695 17.678 29.925 2.485 13.492-.121 27.19-7.338 38.572-8.151 12.854-21.479 21.598-38.541 25.287-31.579 6.828-149.558 38.002-167.062 46.781-22.068 11.068-146.604 107.301-147.859 108.272a1.988 1.988 0 0 1-1.22.418z" fill="#190e64"/><path d="M558.168 404.597s98.518-72.93 118.051-76.701 136.714-18.611 168.619-21.313c69.812-5.913 57.33-99.369-6.417-97.906-36.139.829-179.535 8.18-208.262 15.648s-111.174 67.819-111.174 67.819" fill="#fff"/><path d="M558.169 406.597a2 2 0 0 1-1.192-3.607c4.038-2.989 99.11-73.244 118.862-77.057 20.048-3.87 136.809-18.629 168.829-21.341 15.113-1.28 27.322-6.946 35.306-16.385 7.022-8.302 10.544-19.287 9.918-30.932-1.275-23.713-19.369-47.335-51.426-46.597-34.724.797-178.791 8.041-207.805 15.584-28.031 7.287-109.674 66.896-110.496 67.497a2 2 0 1 1-2.362-3.228c3.379-2.474 83.085-60.662 111.852-68.14 29.301-7.618 173.897-14.913 208.72-15.712 15.883-.355 29.717 4.919 40.035 15.278 9.129 9.167 14.771 21.961 15.477 35.103.681 12.667-3.175 24.646-10.858 33.729-8.683 10.265-21.831 16.416-38.022 17.787-31.956 2.707-148.425 17.426-168.409 21.284-15.098 2.915-83.291 51.213-117.24 76.344a1.985 1.985 0 0 1-1.189.393z" fill="#190e64"/><path d="M508.972 320.478s94.474-75.38 114.322-76.72c19.848-1.339 141.003-12.726 173.004-13.799 70.023-2.347 62.321-96.317-1.418-98.106-36.134-1.014-175.127-.423-204.555 3.455s-123.542 75.259-123.542 75.259" fill="#fff"/><path d="M508.974 322.478a1.999 1.999 0 0 1-1.249-3.563c3.877-3.094 95.195-75.786 115.435-77.152 6.396-.431 23.227-1.899 44.534-3.757 45.083-3.932 106.827-9.317 128.538-10.044 15.159-.508 27.64-5.544 36.095-14.563 7.436-7.933 11.513-18.724 11.481-30.386-.064-23.748-16.911-48.258-48.983-49.159-38.885-1.088-175.401-.36-204.237 3.438-28.572 3.765-121.658 74.159-122.595 74.87a2.002 2.002 0 0 1-2.802-.385 1.999 1.999 0 0 1 .385-2.802c.236-.179 23.885-18.089 50.827-36.24 36.365-24.5 61.149-37.759 73.663-39.408 30.413-4.007 170.913-4.424 204.872-3.471 15.871.445 29.428 6.427 39.204 17.299 8.65 9.62 13.632 22.686 13.667 35.846.064 23.509-15.817 47.765-51.442 48.958-21.603.724-83.286 6.103-128.324 10.031-21.33 1.86-38.177 3.33-44.612 3.764-4.417.298-18.548 5.693-63.551 38.476-25.767 18.77-49.422 37.624-49.658 37.812a2.002 2.002 0 0 1-1.248.436z" fill="#190e64"/><path d="M465.555 234.539s98.357-62.856 116.449-71.129c18.797-8.595 169.037-31.749 200.694-36.552 69.27-10.51 50.643-102.938-12.868-97.268-36.005 3.214-209.128 36.79-238.393 44.737-28.645 7.778-226.812 138.577-226.812 138.577" fill="#fff"/><path d="M465.557 236.539a2 2 0 0 1-1.079-3.685c4.021-2.57 98.683-63.027 116.695-71.263 19.25-8.802 171.001-32.125 201.226-36.711 14.996-2.275 26.803-8.734 34.146-18.68 6.458-8.748 9.248-19.941 7.854-31.519-2.838-23.578-22.436-45.952-54.391-43.1-35.826 3.198-208.554 36.667-238.046 44.675-28.011 7.606-224.255 137.01-226.234 138.316a2 2 0 0 1-2.204-3.338c8.102-5.348 198.764-131.065 227.39-138.838 29.57-8.03 202.797-41.59 238.739-44.799 15.808-1.411 29.977 2.946 40.956 12.602 9.715 8.544 16.188 20.938 17.762 34.005 2.81 23.34-10.13 49.285-45.372 54.632-18.469 2.802-181 27.631-200.163 36.394-17.759 8.12-115.221 70.368-116.204 70.995a2.002 2.002 0 0 1-1.075.314z" fill="#190e64"/><path d="M413.309 667.77C284.766 645.714 121.68 527.737 85.391 432.285 55.618 465.219 30.08 498.204 2 531.821c36.288 95.451 203.94 214.436 332.482 236.492 23.681-33.701 47.246-64.622 78.827-100.543z" fill="#fff"/><path d="M334.482 770.313c-.112 0-.226-.01-.339-.028-61.604-10.571-135.105-43.763-201.656-91.064C65.792 631.815 17.549 578.349.13 532.532a2.001 2.001 0 0 1 .334-1.993c9.021-10.799 17.91-21.694 26.506-32.229 18.043-22.115 36.701-44.982 56.936-67.365a2 2 0 0 1 3.353.63c17.208 45.265 64.104 97.879 128.663 144.353 64.845 46.68 136.912 79.437 197.724 89.871a2 2 0 0 1 1.163 3.292c-28.495 32.41-52.029 62.429-78.693 100.372-.377.538-.99.85-1.634.85zM4.289 532.2c36.692 94.07 201.962 211.502 329.286 233.926 25.721-36.541 48.598-65.789 75.892-97.008-60.639-11.168-131.8-43.813-195.881-89.943-63.75-45.893-110.5-97.87-128.874-143.147-19.339 21.542-37.275 43.525-54.642 64.811-8.363 10.249-17.004 20.84-25.781 31.361z" fill="#190e64"/><path d="M291.776 501.148c59.544-37.578 75.708-154.836 31.447-229.139 0 0-.621-142.325-5.394-223.652-3.76-64.068-85.371-59.508-91.311-.007-2.133 21.362-11.882 146.337-21.58 188.329-8.296 35.924-11.022 76.727-28.134 95.435" fill="#fff"/><path d="M291.778 503.148a2 2 0 0 1-1.069-3.692c58.516-36.93 74.346-153.315 30.796-226.424a2.002 2.002 0 0 1-.282-1.015c-.006-1.423-.675-143.201-5.391-223.543-1.891-32.243-23.142-44.104-40.766-44.465-27.617-.59-44.306 21.979-46.558 44.54-.363 3.635-.961 10.436-1.718 19.046-3.84 43.681-11.83 134.574-19.903 169.534-2.143 9.279-3.933 18.998-5.664 28.396-5.083 27.597-9.885 53.663-22.943 67.938a2 2 0 1 1-2.951-2.701c12.284-13.429 16.984-38.947 21.96-65.963 1.739-9.442 3.538-19.205 5.701-28.572 8.01-34.688 15.984-125.393 19.816-168.984.758-8.624 1.356-15.435 1.722-19.093 1.483-14.853 7.627-27.361 17.768-36.173C251.462 4.012 263.147-.245 275.149.008c11.385.232 21.991 4.595 29.863 12.282 8.817 8.61 13.94 21.041 14.815 35.948 4.573 77.922 5.345 213.477 5.395 223.216 21.113 35.73 29.564 82.773 23.188 129.167-6.423 46.728-26.675 83.984-55.564 102.217-.334.21-.703.31-1.068.31z" fill="#190e64"/></svg></g><g transform="translate(995.0 645.0) rotate(-10.053383743665073 526.6666666666667 888.3333333333335) scale(1.1257975438375234 1.126341730813202)"><svg width="935.633" height="1577.378" viewBox="0 0 935.633 1577.378"><rect fill="#fff" height="1493.378" rx="71.808" width="851.633" x="42" y="42"/><g fill="#190e64"><path d="M821.825 1537.378H113.808c-40.697 0-73.808-33.11-73.808-73.808V113.808c0-40.698 33.11-73.809 73.808-73.809h708.018c40.697 0 73.808 33.11 73.808 73.809V1463.57c0 40.697-33.11 73.808-73.808 73.808zM113.808 44C75.316 44 44 75.316 44 113.809v1349.762c0 38.492 31.315 69.808 69.808 69.808h708.018c38.492 0 69.808-31.315 69.808-69.808V113.808c0-38.493-31.315-69.809-69.808-69.809H113.808z"/><path d="M821.825 2H113.808C52.157 2 2 52.157 2 113.808V1463.57c0 61.651 50.157 111.808 111.808 111.808h708.017c61.651 0 111.808-50.157 111.808-111.808V113.808C933.633 52.157 883.476 2 821.825 2zm71.808 1461.57c0 39.659-32.15 71.808-71.808 71.808H113.808c-39.659 0-71.808-32.149-71.808-71.808V113.808C42 74.149 74.149 42 113.808 42h708.017c39.658 0 71.808 32.149 71.808 71.808z"/><path d="M821.825 1577.378H113.808C51.054 1577.378 0 1526.324 0 1463.57V113.808C0 51.054 51.054 0 113.808 0h708.018c62.753 0 113.807 51.054 113.807 113.808V1463.57c0 62.754-51.054 113.808-113.808 113.808zM113.808 4C53.26 4 4 53.26 4 113.808V1463.57c0 60.548 49.26 109.808 109.808 109.808h708.018c60.548 0 109.808-49.26 109.808-109.808V113.808C931.634 53.26 882.374 4 821.826 4zm708.018 1533.377H113.808c-40.697 0-73.808-33.11-73.808-73.808V113.808C40 73.11 73.11 40 113.808 40h708.018c40.697 0 73.808 33.11 73.808 73.808V1463.57c0 40.697-33.11 73.808-73.808 73.808zM113.808 44C75.316 44 44 75.316 44 113.808V1463.57c0 38.492 31.315 69.808 69.808 69.808h708.018c38.492 0 69.808-31.315 69.808-69.808V113.808c0-38.492-31.315-69.808-69.808-69.808z"/><rect height="54.013" rx="27.006" width="210.05" x="362.792" y="75.454"/><path d="M545.835 131.467H389.798c-15.994 0-29.007-13.012-29.007-29.006s13.013-29.006 29.007-29.006h156.037c15.994 0 29.007 13.012 29.007 29.006s-13.013 29.006-29.007 29.006zM389.798 77.454c-13.789 0-25.007 11.218-25.007 25.006s11.218 25.006 25.007 25.006h156.037c13.789 0 25.007-11.218 25.007-25.006s-11.218-25.006-25.007-25.006z"/></g></svg></g><g transform="translate(1625.0 121.66666666666667) rotate(0.0 559.1666666666667 366.6666666666667) scale(2.1543365414005056 2.1546194060693673)"><svg width="519.108" height="340.354" viewBox="0 0 519.108 340.354"><path d="M401.794 96.816a94.347 94.347 0 0 0-6.36-34.254c-18.84-48.761-73.643-73.016-122.404-54.176-32.271 12.469-53.792 40.692-59.207 72.488-22.217-20.651-56.128-25.409-83.768-9.451-21.434 12.375-33.954 34.245-35.343 57.229C42.5 134.848 2 179.241 2 233.12c0 58.119 47.115 105.234 105.234 105.234h289.035c66.737 0 120.839-54.101 120.839-120.839 0-64.884-51.143-117.809-115.314-120.699z" fill="#fff"/><path d="M396.27 340.354H107.234C48.105 340.354 0 292.249 0 233.12c0-53.744 39.793-99.128 92.834-106.245 1.982-23.895 15.43-45.18 36.22-57.183 26.884-15.522 59.975-12.477 83.459 7.351 6.667-31.919 29.307-58.742 59.795-70.522 24.082-9.304 50.345-8.674 73.953 1.774 23.607 10.449 41.733 29.465 51.038 53.547a96.165 96.165 0 0 1 6.479 33.076c64.824 3.901 115.329 57.391 115.329 122.598.001 67.733-55.104 122.838-122.837 122.838zM165.631 63.83c-11.82 0-23.731 3.065-34.576 9.326-20.103 11.606-32.943 32.398-34.346 55.618a2.002 2.002 0 0 1-1.761 1.866C43.099 136.791 4 180.848 4 233.12c0 56.923 46.311 103.234 103.234 103.234H396.27c65.528 0 118.838-53.311 118.838-118.839 0-63.698-49.813-115.838-113.404-118.701a2 2 0 0 1-1.91-2.001 92.206 92.206 0 0 0-6.226-33.529c-8.919-23.084-26.295-41.314-48.925-51.331-22.63-10.016-47.807-10.62-70.892-1.7-30.288 11.703-52.495 38.892-57.956 70.958a2 2 0 0 1-3.333 1.129c-13.137-12.211-29.889-18.51-46.831-18.51z" fill="#190e64"/></svg></g><g transform="translate(1100.0 1050.0) rotate(0.0 395.0 291.66666666666674) scale(2.1547668078629894 2.1587748027805027)"><svg width="366.629" height="270.215" viewBox="0 0 366.629 270.215"><path d="M342.71 219.257 68.464 267.804c-14.434 2.555-28.207-7.075-30.762-21.509L2.411 46.929C-.144 32.495 9.485 18.723 23.92 16.168l49.434-8.751a39.042 39.042 0 0 1 35.248 11.7 39.04 39.04 0 0 0 35.248 11.7L304.324 2.411c14.434-2.555 28.207 7.075 30.762 21.509l29.133 164.576c2.555 14.434-7.075 28.206-21.509 30.761z" fill="#ec535b"/><path d="M63.777 270.218c-5.796 0-11.445-1.768-16.294-5.158-6.248-4.369-10.421-10.909-11.75-18.416L.441 47.278c-1.329-7.507.345-15.083 4.713-21.33 4.369-6.249 10.909-10.421 18.416-11.75l49.435-8.751c13.682-2.423 27.535 2.175 37.054 12.299a36.926 36.926 0 0 0 33.442 11.102L303.975.441c15.502-2.747 30.336 7.633 33.08 23.129l29.133 164.576c2.743 15.497-7.633 30.336-23.129 33.08L68.813 269.773c-1.68.298-3.364.445-5.036.445zM80.208 8.813c-2.159 0-4.334.188-6.506.573l-49.435 8.751c-6.455 1.143-12.079 4.73-15.835 10.103A24.385 24.385 0 0 0 4.38 46.581l35.292 199.366c1.143 6.455 4.731 12.079 10.103 15.835s11.886 5.196 18.341 4.053l274.246-48.547.349 1.969-.349-1.969c13.325-2.359 22.247-15.119 19.888-28.444L333.116 24.268c-2.359-13.325-15.124-22.246-28.444-19.888L144.199 32.787c-13.685 2.421-27.536-2.176-37.054-12.3-7.08-7.53-16.818-11.674-26.937-11.674z" fill="#ec535b"/><path d="M10.81 96.389a2 2 0 0 1-.346-3.97L336.979 34.62a2 2 0 1 1 .697 3.939L11.161 96.358a2.007 2.007 0 0 1-.351.031z" fill="#190e64"/></svg></g><g transform="translate(1936.6666666666667 966.6666666666667) rotate(0.0 247.5000000000001 375.0) scale(2.1522581318399423 2.1502416871656376)"><svg width="229.991" height="348.798" viewBox="0 0 229.991 348.798"><path d="M229.991 92.361 153.924 0l-41.968 112.048 27.646-4.611c-3.104 36.413-15.289 71.405-35.79 102.298C78.618 247.701 42.721 276.411 0 292.762l21.447 56.036c54.451-20.84 100.22-57.456 132.359-105.888 28.955-43.634 44.886-93.714 46.456-145.591z" fill="#ec535b"/></svg></g><g transform="translate(1246.6666666666667 1775.0) rotate(0.0 346.66666666666663 110.0) scale(2.1884347536064457 2.185097634135198)"><svg width="316.817" height="100.682" viewBox="0 0 316.817 100.682"><path d="M294.095 51.803 31.47 98.293c-13.646 2.416-26.666-6.688-29.081-20.334-2.416-13.646 6.688-26.666 20.334-29.081l262.625-46.49c13.646-2.416 26.666 6.688 29.081 20.334 2.415 13.646-6.689 26.666-20.334 29.081z" fill="#fff"/><g fill="#190e64"><path d="M27.038 100.684c-5.502 0-10.863-1.677-15.467-4.896C5.641 91.642 1.68 85.434.419 78.308c-1.262-7.126.328-14.316 4.474-20.247 4.146-5.93 10.354-9.891 17.48-11.152L284.998.419c14.702-2.608 28.795 7.244 31.399 21.955 1.262 7.125-.328 14.316-4.474 20.247-4.147 5.93-10.355 9.891-17.48 11.152l-262.625 46.49a27.443 27.443 0 0 1-4.78.421zM289.732 4.002c-1.332 0-2.68.116-4.036.355L23.071 50.847a22.937 22.937 0 0 0-14.899 9.506C4.637 65.408 3.283 71.536 4.358 77.61s4.451 11.365 9.506 14.899 11.184 4.888 17.257 3.814l262.625-46.49.349 1.969-.349-1.969c12.538-2.22 20.933-14.226 18.713-26.763-1.979-11.181-11.744-19.068-22.727-19.068z"/><path d="M212.286 66.285 31.47 98.293c-13.646 2.416-26.666-6.688-29.081-20.334-2.416-13.646 6.688-26.666 20.334-29.081L203.538 16.87c13.646-2.416 26.666 6.688 29.081 20.334 2.416 13.646-6.688 26.666-20.333 29.081z"/><path d="M27.083 100.68c-12.886 0-24.341-9.252-26.664-22.372-1.262-7.126.328-14.316 4.474-20.247 4.146-5.93 10.354-9.891 17.48-11.152L203.19 14.901c14.709-2.605 28.795 7.245 31.399 21.954 2.604 14.71-7.245 28.796-21.954 31.399L31.818 100.262c-1.59.282-3.174.418-4.735.418zm180.84-82.196c-1.332 0-2.68.116-4.036.355L23.071 50.847a22.937 22.937 0 0 0-14.899 9.506C4.637 65.408 3.283 71.536 4.358 77.61s4.451 11.365 9.506 14.899 11.184 4.888 17.257 3.814l180.816-32.008.349 1.969-.349-1.969c12.538-2.22 20.932-14.226 18.713-26.764-1.979-11.18-11.744-19.067-22.727-19.067z"/></g></svg></g><g transform="translate(2040.0 438.33333333333337) rotate(0.0 138.33333333333348 138.33333333333331) scale(2.08182839714263 2.081828397142628)"><svg width="132.896" height="132.896" viewBox="0 0 132.896 132.896"><g fill="#190e64"><path d="M4 70.448a4 4 0 0 1-4-4C0 29.808 29.808 0 66.448 0c23.575 0 45.596 12.671 57.467 33.069a4 4 0 0 1-6.914 4.024C106.557 19.148 87.186 8 66.448 8 34.22 8 8 34.22 8 66.448a4 4 0 0 1-4 4z"/><path d="m129.683 27.25-2.706 23.777-19.24-14.229zM66.448 132.896c-23.576 0-45.596-12.671-57.467-33.068a4 4 0 0 1 6.914-4.024c10.444 17.945 29.815 29.093 50.553 29.093 32.228 0 58.448-26.22 58.448-58.448a4 4 0 0 1 8 0c0 36.638-29.808 66.447-66.448 66.447z"/><path d="m3.212 105.646 2.707-23.777 19.24 14.229z"/></g></svg></g><g transform="translate(730.0 1206.6666666666667) rotate(0.0 193.33333333333337 541.6666666666666) scale(2.1641992929038523 2.1642643332567513)"><svg width="178.665" height="500.555" viewBox="0 0 178.665 500.555"><g><path style="fill:#fff" d="M129.309 498.555c56.562-41.932 63.898-160.072 14.197-230.851 0 0-11.28-141.878-22.13-222.619-8.548-63.606-89.588-52.947-91.055 6.832-.527 21.461-.889 146.816-7.413 189.416C17.325 277.777 17.663 318.67 2 338.607"/><path style="fill:#190e64" d="M129.311 500.555a1.998 1.998 0 0 1-1.192-3.606c55.585-41.209 62.653-158.454 13.751-228.095a1.99 1.99 0 0 1-.357-.991c-.113-1.418-11.4-142.749-22.119-222.511C115.092 13.34 93.008 3.095 75.411 4.064 47.856 5.568 32.876 29.3 32.32 51.966c-.09 3.652-.176 10.479-.286 19.122-.558 43.846-1.717 135.082-7.149 170.548-1.442 9.414-2.499 19.238-3.521 28.739-3.002 27.9-5.837 54.253-17.791 69.467a2.002 2.002 0 0 1-3.146-2.472c11.244-14.311 14.02-40.11 16.959-67.423 1.027-9.545 2.089-19.415 3.544-28.917 5.39-35.19 6.547-126.238 7.104-169.993.11-8.656.197-15.494.287-19.169.366-14.922 5.556-27.856 15.008-37.402C51.872 5.837 63.188.725 75.193.07c11.375-.621 22.273 2.935 30.699 10.011 9.438 7.926 15.477 19.938 17.466 34.738 10.396 77.36 21.32 212.477 22.099 222.185 23.729 34.049 35.681 80.326 32.796 127.067-2.905 47.078-20.31 85.747-47.752 106.091a1.997 1.997 0 0 1-1.19.393z"/></g></svg></g></svg>