<svg xmlns="http://www.w3.org/2000/svg"  viewBox="0 0 100 100" width="100px" height="100px"><path fill="#60be92" d="M20,81.986V18.014c0-2.293,2.458-3.744,4.462-2.634L82.449,46.94c2.055,1.138,2.072,4.09,0.03,5.251	L24.491,84.603C22.487,85.743,20,84.293,20,81.986z"/><path fill="#1f212b" d="M23.008,86.002c-0.692,0-1.385-0.183-2.014-0.549C19.745,84.727,19,83.431,19,81.985V18.014	c0-1.436,0.738-2.727,1.974-3.456c1.233-0.727,2.719-0.748,3.973-0.053l57.981,31.556C84.22,46.777,84.992,48.08,85,49.55	c0.009,1.471-0.749,2.783-2.027,3.51L24.979,85.476C24.362,85.827,23.686,86.002,23.008,86.002z M23.004,16.002	c-0.35,0-0.698,0.094-1.015,0.28C21.37,16.647,21,17.294,21,18.014v63.971c0,0.725,0.373,1.375,0.999,1.739	c0.623,0.362,1.369,0.366,1.998,0.009L81.99,51.318c0.634-0.36,1.014-1.019,1.01-1.756c-0.004-0.738-0.392-1.391-1.035-1.748	l-57.98-31.555C23.675,16.087,23.339,16.002,23.004,16.002z"/><path fill="#1f212b" d="M24.5,79.942c-0.088,0-0.175-0.023-0.253-0.069C24.094,79.784,24,79.62,24,79.442V20.524	c0-0.176,0.093-0.34,0.244-0.43c0.152-0.09,0.339-0.095,0.495-0.009l9,4.898c0.242,0.132,0.332,0.436,0.2,0.678	c-0.133,0.243-0.436,0.331-0.679,0.2L25,21.366V78.59l51.872-28.994L45.261,32.393c-0.242-0.132-0.332-0.436-0.2-0.678	c0.133-0.243,0.436-0.332,0.679-0.2l32.407,17.637c0.16,0.087,0.26,0.254,0.261,0.436s-0.097,0.351-0.256,0.439L24.744,79.879	C24.668,79.921,24.584,79.942,24.5,79.942z"/><path fill="#1f212b" d="M39.5,29.188c-0.081,0-0.163-0.02-0.239-0.061l-3-1.633c-0.242-0.132-0.332-0.436-0.2-0.678	c0.132-0.243,0.436-0.332,0.679-0.2l3,1.633c0.242,0.132,0.332,0.436,0.2,0.678C39.849,29.094,39.677,29.188,39.5,29.188z"/><path fill="#1f212b" d="M43.5,31.365c-0.081,0-0.163-0.02-0.239-0.061l-2-1.089c-0.242-0.132-0.332-0.436-0.2-0.678	c0.132-0.243,0.437-0.332,0.679-0.2l2,1.089c0.242,0.132,0.332,0.436,0.2,0.678C43.849,31.271,43.677,31.365,43.5,31.365z"/></svg>