<svg xmlns="http://www.w3.org/2000/svg"  viewBox="0 0 48 48" width="100px" height="100px"><path fill="#039be5" d="M30.003,26.97L30.003,26.97c0,0-1,4-4.998,4s-4.998-4-4.998-4S9.01,28.956,9.01,39.97h31.989	C40.999,28.995,30.003,26.97,30.003,26.97"/><path fill="#ff9800" d="M24.999,32.97c-5,0-5-6-5-6v-6h10v6C29.999,26.97,29.999,32.97,24.999,32.97z"/><path fill="#ffa726" d="M35.999,17.97c0,1.105-0.896,2-2,2c-1.106,0-2-0.895-2-2s0.894-2,2-2	C35.103,15.97,35.999,16.865,35.999,17.97"/><path fill="#ffa726" d="M17.999,17.97c0,1.105-0.896,2-2,2c-1.106,0-2-0.895-2-2s0.894-2,2-2	C17.103,15.97,17.999,16.865,17.999,17.97"/><path fill="#ffb74d" d="M33.999,11.97c0-7.635-18-4.971-18,0v7c0,4.971,4.028,9,9,9c4.971,0,9-4.029,9-9V11.97z"/><path fill="#424242" d="M25.005,3.006c-6.072,0-9.995,5-9.995,10.974v2.281l0.989,1.745l1-3.006l2,2l12-3l3,2.006v2	L35,16.233V13.98c0-4.015-1.037-7.997-5.997-8.979l-1-1.995L25.005,3.006z"/><path fill="#784719" d="M27.999,20.006c0,0.551,0.448,1,1,1s1-0.449,1-1s-0.448-1-1-1S27.999,19.455,27.999,20.006"/><path fill="#784719" d="M19.999,20.006c0,0.551,0.448,1,1,1s1-0.449,1-1s-0.448-1-1-1S19.999,19.455,19.999,20.006"/><path fill="#0288d1" d="M24.999,32.97c5,0,6.745-3.93,6.95-5.428c-1.156-0.424-1.95-0.572-1.95-0.572s-1,4-5,4s-5-4-5-4	s-0.795,0.145-1.952,0.566C18.251,29.031,19.999,32.97,24.999,32.97z"/><path fill="#ffb74d" d="M18.988,39.088h-4v-2h4c0.552,0,1,0.448,1,1l0,0C19.988,38.641,19.541,39.088,18.988,39.088z"/><path fill="#ffb74d" d="M18.999,41.088h-4v-2h4c0.552,0,1,0.448,1,1l0,0C19.999,40.641,19.552,41.088,18.999,41.088z"/><rect width="40" height="3.998" x="3.994" y="40.001" fill="#d32f2f"/><path fill="#d32f2f" d="M18.994,40.999L18.994,40.999c0,2.762,2.239,5.001,5,5.001s5-2.239,5-5v-0.001H18.994z"/><path fill="#4c0808" d="M23.994,38.001c-1.657,0-3,1.343-3,3s1.343,3,3,3s3-1.343,3-3S25.651,38.001,23.994,38.001z"/><path fill="#bcaaa4" d="M5.994,42v-3h17v3"/><path fill="#efebe9" d="M5.994,38v2c0,0,8.614-1.002,13.044-0.042c0.74,0.16,1.41,0.34,1.96,0.56 c0.99,0.39,1.996,0.872,1.996,1.482v-4C16.994,35.999,11.873,36.719,5.994,38z"/><path fill="#bcaaa4" d="M41.994,42v-3h-17v3"/><path fill="#efebe9" d="M41.994,38v2c0,0-8.614-1.002-13.044-0.042c-0.74,0.16-1.41,0.34-1.96,0.56 C26,40.908,24.994,41.39,24.994,42v-4C30.994,35.999,36.114,36.719,41.994,38z"/><rect width="2" height="3.998" x="22.994" y="38" fill="#bcaaa4"/><path fill="#ffb74d" d="M36.322,32.805l-1.65-0.572C34.27,32.094,34,31.714,34,31.288v-0.007c0-0.651,0.611-1.128,1.243-0.97	l1.683,0.421c0.703,0.176,1.346,0.54,1.858,1.052l2.727,2.727c0.81,0.81,0.775,2.133-0.076,2.9l-1.899,1.711	c-0.781,0.781-2.047,0.781-2.828,0l-3.243-3.243L36.322,32.805z"/><path fill="#ffb74d" d="M31.636,39.121L31.636,39.121c-0.39-0.39-0.39-1.024,0-1.414l2.828-2.828l1.414,1.414l-2.828,2.828	C32.659,39.512,32.027,39.512,31.636,39.121z"/><path fill="#ffb74d" d="M10,43H8H7c-0.552,0-1-0.448-1-1v-1c0-0.552,0.448-1,1-1h1c0.553,0,1-0.447,1-1c0-0.552-0.448-1-1-1	H7l-1.106-0.553c-0.628-0.314-1.325-0.467-2.028-0.445C2.815,37.035,2,37.948,2,39l0,1v3c0,1.105,0.895,2,2,2h6c0.553,0,1-0.447,1-1	C11,43.448,10.552,43,10,43z"/></svg>